<svg id="Layer_1" data-name="Layer 1" xmlns="http://www.w3.org/2000/svg" viewBox="0 0 82.53 15.21"><defs><style>.cls-1{fill:#fff;}.cls-2{fill:none;stroke:#57a2d3;stroke-miterlimit:10;stroke-width:0.25px;}.cls-3{opacity:0.85;}.cls-4{fill:#d8f2f0;}.cls-5{fill:#f2fbfa;}.cls-6{fill:#c0eae7;}.cls-7{fill:#79d2cc;}.cls-8{fill:#5ec9c1;}.cls-9{fill:#a8e2de;}.cls-10{fill:#92dad5;}.cls-11{fill:#42bfb6;}</style></defs><path class="cls-1" d="M0,0" transform="translate(-61.61 -73.9)"/><path class="cls-2" d="M0,0" transform="translate(-61.61 -73.9)"/><path class="cls-1" d="M136.08,77.78,66,78.88" transform="translate(-61.61 -73.9)"/><g class="cls-3"><g class="cls-3"><path class="cls-4" d="M109.53,81.63c.29.05.6.09.92.16,0,.11,0,.23,0,.34s.22.06.34.06.11-.27.15-.4l.48-.29c.59,0,11,.43,11.64.39q.58,0,1.17.09a.37.37,0,0,1,.12.13c0,.11,0,.23,0,.34-.92-.21-1.1.34-1.67.41-1.13-.33-11.26-.14-12.47-.38l-.8-.15c-.17-.21-.3-.43-.44-.63Z" transform="translate(-61.61 -73.9)"/><path class="cls-5" d="M110.92,81.79c0,.13.08.32-.15.4s-.27,0-.34-.06,0-.23,0-.34Z" transform="translate(-61.61 -73.9)"/><path class="cls-4" d="M135.07,75.61c.67-.19.64.33.06.62l-.1-.06C135,76,135.05,75.8,135.07,75.61Z" transform="translate(-61.61 -73.9)"/><path class="cls-5" d="M135,76.17c.21-.25-.06-.57.37-.48C135.4,75.85,135.44,76,135,76.17Z" transform="translate(-61.61 -73.9)"/><path class="cls-6" d="M70.31,74.64l1.18-.12L72.83,74a2.6,2.6,0,0,0,.32.35c-.22.36.3.42.42.77l1-.13c0,.1,0,.18,0,.29a2.64,2.64,0,0,1-1.17,0c-.4.11-.77.18-1,0-.42,0-.87.12-1.31.19h-.22c-.12-.16-.23-.32-.34-.5S70.38,74.74,70.31,74.64Z" transform="translate(-61.61 -73.9)"/><path class="cls-4" d="M72.83,74l.47-.06a7.67,7.67,0,0,1,1.38.22,63.25,63.25,0,0,0,7.54.49,34.46,34.46,0,0,1,4.18.66l-1.06.12a10.19,10.19,0,0,0-3.42.11c-1.64-.06-2.45-.52-4-.11h-.47c-.57-.29-.93-.54-1.4-.36,0,.1,0,.19,0,.28h-.71v-.06h-.81c0-.11,0-.19,0-.29l-1,.13c-.12-.35-.64-.41-.42-.77A2.6,2.6,0,0,1,72.83,74Z" transform="translate(-61.61 -73.9)"/><path class="cls-6" d="M76.06,75c.47-.18.83.07,1.4.36L76,75.31C76.05,75.22,76.05,75.13,76.06,75Z" transform="translate(-61.61 -73.9)"/><path class="cls-6" d="M77.93,75.39c1.54-.41,2.35,0,4,.11a10.19,10.19,0,0,1,3.42-.11l1.06-.12h.25a3,3,0,0,0,.23.35c.48-.27,1.08,0,1.41-.21l1.41.16c2,.06,3.16.53,4.82.39.89.28,2.42.05,3.52.3h.8l.38-.13,4,.09a1.66,1.66,0,0,0,.1.29l-.38.35a2,2,0,0,0-.6,0h-2.11l-1.63-.14-.51.34H97.5c-.21-.26-.78-.09-1.17-.22l-.69.06-.83-.13c-.65-.23-.73-.54-1.27-.43-.32-.08-.45.11-.72.12-.8-.17-.6.08-.82.14H91a3.74,3.74,0,0,0-1.17-.15h-.81c0-.06-.06-.13-.11-.2l-.47.06-1.64-.08a2.84,2.84,0,0,1-.22-.35c-.64-.09-.53.2-.73.27H85.3L84.5,76H82.73l-.58-.22h-.71l-1.17-.14H79.09c-.31-.06-.63-.11-1-.15Z" transform="translate(-61.61 -73.9)"/><path class="cls-6" d="M79.86,80.89a.75.75,0,0,1,.13-.06c.67-.15,1.18-.08,1.65-.2.15.07.32.14.46.22a2,2,0,0,0,.59-.07l.37-.07c.22.05.46.09.68.15-.08.2-.17.41-.25.62-.37,0-.72,0-1.06.06l-1.08-.08c-.19,0-.3.13-.47.2-.45.08-.66-.12-1-.48V81.1C79.85,81,79.86,81,79.86,80.89Z" transform="translate(-61.61 -73.9)"/><path class="cls-7" d="M74.09,78.76a3.24,3.24,0,0,0,.35-.27A5.62,5.62,0,0,1,76,78.08a2.08,2.08,0,0,0,1.18.08V78H78a.47.47,0,0,1,.12.13l1.29.16a5.93,5.93,0,0,1,.59.07l.25-.07h.22c.32,0,.64,0,1-.06.39.57.64,0,.93.08a6.8,6.8,0,0,1,1.76.09l.83.06h.81c-.07.43.75.19,1,.43.12.06.24.1.36.15h.72c.2-.07.28-.28.6-.21a2.6,2.6,0,0,0,.32.35,2.13,2.13,0,0,1,.71.08h.22l.38-.2.69.28a1,1,0,0,0,.23-.07l1.54.09h.34c0,.12,0,.23,0,.35a1.61,1.61,0,0,0,1,.21c0,.1,0,.19,0,.29l-.46,0c-.64,0-.78.2-1.07.21h-.13c-.14-.08-.31-.15-.45-.22-.53-.11-.79.18-1.19.27h-.25l-1-.22h-.47c-.85-.21-1.15,0-1.3.06a1.7,1.7,0,0,1-.34-.07l-.48-.28c-.46-.13-.58.25-.94.27l-.71-.14c-.21-.1-.46-.19-.7-.29s-.3.22-.59.14a4.92,4.92,0,0,0-.45-.28c-.54-.09-.14.28-.61.34h-.47v.08h-.47c-.06.16-.09.32-.15.48-.47.12-1,.05-1.65.2l0-.56a1.54,1.54,0,0,0-.12-.13L79.57,80c.14-.38.57-.17.83-.41a1.7,1.7,0,0,0,.14-.35,2.83,2.83,0,0,0-.23-.28c-.22,0-.46,0-.68-.07l-1.67,0c-.22,0-.32.07-.47.14.05.38.88.4.66.83a8.09,8.09,0,0,0-2-.22c-.46-.07-.92-.15-1.39-.21H74.4c-.1-.11-.21-.23-.33-.34S74.08,78.86,74.09,78.76Z" transform="translate(-61.61 -73.9)"/><path class="cls-8" d="M87.05,78.74l.84-.07h.46l.22.07.83.14c.24,0,.54,0,.71.08l.92.15.59-.07c-.06-.14-.13-.27-.2-.42a.57.57,0,0,0,0-.13,2.25,2.25,0,0,1-.22-.35,1.17,1.17,0,0,1,.25-.14h1.05a1.94,1.94,0,0,0,.21.2l1.09,0,.09.06.24.08a3.62,3.62,0,0,1,1.31-.19.52.52,0,0,0,.7.21l.7-.07c0-.09-.07-.18-.09-.28s.09-.18.12-.27c.29,0,.56,0,.83-.07s.6-.06.85-.19l.46.13.47-.12a1.73,1.73,0,0,0,.24.13h.69l.49-.13c.59.09.89,0,1,.21h.59l.24-.42h.37c0,.18,0,.33,0,.49h.35c.18-.26.6-.19,1-.2,0-.1.09-.18.12-.28l.71-.06.71.07.13-.06h1.52L108,77a2,2,0,0,0,.33.15h.59l.59.08.93.07c0,.1,0,.18,0,.28a.89.89,0,0,1-.93,0l-.85.26.48.21c1.19-.21,1.42.45,2.67.51-.21.22-.64.06-.84.2l-1.77,0a1.67,1.67,0,0,1-.35.07l0,.62a5.51,5.51,0,0,0,.71.08c.59-.15.79-.12.92.08l.85-.26c.27.11.11.27.33.4h.24c.26.13,10.39.73,10.66.85l.7.15.7.15c.76.08,1.48-.43,1.89.15l-.48.27a.58.58,0,0,0-.6.21c-.33.11-.25.37-.52.42s-.78-.07-1.17-.09l-.45-.27c0-.37-10.49-.82-10.9-.94-.61-.16-.31.28-.73.34l-.72.13h-.34l-.84-.07c-.17-.33-.34-.49-.66-.42s-.49-.1-.7-.16c.13-.11.23-.22.36-.34h.37c.36-.28.19-.44.13-.62l-.69.07h-1.3l-.24-.07a4.69,4.69,0,0,0-.46-.21.7.7,0,0,0-.61.34c-.26-.06-.53-.1-.82-.15a1.08,1.08,0,0,1-.7.2c-.17-.06-.31-.14-.48-.21s-.55.14-.82.19l-.58-.13c-.51-.08-.36.31-.73.34l-.83-.08c.14-.3.27-.6.41-.89a1.32,1.32,0,0,1-1.29-.16H99c-.07,0-.15,0-.25.07l-.7-.15c0,.1,0,.19,0,.27a5.27,5.27,0,0,1-.6.14c0,.13-.37,0-.69.07,0,.08,0,.19,0,.27-.39,0-.79.08-1.18.14-.24-.08-.49-.15-.7-.23l-.73.21c-.38-.06-.78-.1-1.17-.15h-.34L91,79.32a1,1,0,0,1-.23.07l-.69-.28-.38.2H89.5a2.13,2.13,0,0,0-.71-.08,2.6,2.6,0,0,1-.32-.35,3.85,3.85,0,0,1-1.32.21c-.12,0-.24-.09-.36-.15A2,2,0,0,0,87.05,78.74Z" transform="translate(-61.61 -73.9)"/><path class="cls-6" d="M88.11,80.83c.31-.23.45-.48.74-.49h.47c0,.14,0,.27,0,.42l-.94.13A1.61,1.61,0,0,0,88.11,80.83Z" transform="translate(-61.61 -73.9)"/><path class="cls-9" d="M92.71,80.65h.59l1.19-.12h1.64c.11.2.22.42.34.62.22-.08.47-.18.72-.26s.24-.23.37-.35h.71l.12.07c.49-.1,1-.18,1.53-.27a1.74,1.74,0,0,0,.12.14c.31.08.6.15.92.21.25-.11.48-.21.73-.34.26.18.55.34.81.5-.26.14-.51.27-.74.41-.27,0-.56-.09-.82-.15l-1.19.13h-.59c-.13.08-.23.19-.36.27a2.1,2.1,0,0,1-.7-.08,5.51,5.51,0,0,1-.71-.08c-.32,0-.61,0-.93-.06s-.78-.07-1.18-.08c-.83,0-1.64,0-2.48.05a.28.28,0,0,0-.12-.08Z" transform="translate(-61.61 -73.9)"/><path class="cls-6" d="M93.45,80.31l.46,0c.2.08.39.19.58.28l-1.19.12C93.29,80.48,93.51,80.44,93.45,80.31Z" transform="translate(-61.61 -73.9)"/><path class="cls-6" d="M94.07,79.56l.73-.21c.21.08.46.15.7.23.39-.06.79-.1,1.18-.14l1.75.36a.61.61,0,0,0-.13.15l-.84,0-1.06.13-1-.28-1.17-.08C94.07,79.65,94.07,79.61,94.07,79.56Z" transform="translate(-61.61 -73.9)"/><path class="cls-6" d="M96.39,80.28l1,.14.12.14c-.13.12-.26.23-.37.35s-.5.18-.72.26c-.12-.2-.23-.42-.34-.62A3.18,3.18,0,0,0,96.39,80.28Z" transform="translate(-61.61 -73.9)"/><path class="cls-6" d="M102.44,79.69c.27,0,.55-.12.82-.19s.31.15.48.21a1.08,1.08,0,0,0,.7-.2c.29,0,.56.09.82.15a.7.7,0,0,1,.61-.34,4.69,4.69,0,0,1,.46.21l.24.07a1.34,1.34,0,0,0,0,.2,3.69,3.69,0,0,1-2.74.2l-.83.33h-1.3s0,0,0-.07Z" transform="translate(-61.61 -73.9)"/><path class="cls-6" d="M104.86,76.32v-.13l.6-.21h.47c.22,0,.06-.24.72-.12h.24l.81.07.36.22h.68l1.44-.13c.38.06.77.11,1.16.15s10.49.43,10.81.37a2.41,2.41,0,0,0,.37-.07c.66.07,1.32.11,2,.16,0,.15,0,.28,0,.42l-1.28.06-1-.08c-.28.07-10.42-.38-10.69-.31l-.36-.2-2,0a4.58,4.58,0,0,1-.49-.15c-.07.06-.15.1-.22.15h-1.65c-.56,0-1.11,0-1.67.06H105A.2.2,0,0,1,104.86,76.32Z" transform="translate(-61.61 -73.9)"/><path class="cls-8" d="M125.17,77.4c0-.11,0-.23,0-.34l.6-.14H127l.82.22c.32-.07.17-.37.6-.28s0,.39.45.35.47-.1.84-.12c0-.09,0-.19,0-.28l.81-.14h.37c.3,0,.62-.08.94-.14v-.06l.47-.21a4.49,4.49,0,0,0,1.06-.06,1.28,1.28,0,0,1,.24.22c-.17.27-.35.54-.51.82a1.22,1.22,0,0,0-.14.28,1.59,1.59,0,0,1-.13.13,2.41,2.41,0,0,1-.35.07c-.24,0-.46-.09-.7-.15l-.23-.27-.82.13-.95-.22a2.26,2.26,0,0,0-.13.63,1.91,1.91,0,0,0-.25.13c-.59-.09-.81-.06-.85.27a2.53,2.53,0,0,1-.95.28c-.83,0-.91-.41-1.28-.43l-.57-.22a7.45,7.45,0,0,1-1.06-.07Z" transform="translate(-61.61 -73.9)"/><path class="cls-6" d="M125.8,76.64c.24-.33.68-.26,1.07-.19.16-.27.52-.18.72-.14a2.68,2.68,0,0,1,1.65-.13c-.08.18-.16.33-.25.49h-1.42l-.47.07-.13.2h-1.18C125.8,76.79,125.8,76.72,125.8,76.64Z" transform="translate(-61.61 -73.9)"/><path class="cls-6" d="M128.7,82.07c-.25.07,0,.31-.72.07C128.23,82.13,128.45,82.1,128.7,82.07Z" transform="translate(-61.61 -73.9)"/><path class="cls-6" d="M130.08,76.13c.54-.11.94-.22,1.08-.55l.47-.07h.72v-.13a1.37,1.37,0,0,0,1-.21c.42-.09.61.15.92.22q.09.31.21.63l-1.08.13v.06a4.49,4.49,0,0,1-1.06.06l-.47.21-.82-.35c-.44,0-.06.29-.48.34C130.38,76.37,130.22,76.25,130.08,76.13Z" transform="translate(-61.61 -73.9)"/><path class="cls-4" d="M72.45,78.68c.22,0,.46-.05.71-.06a1.62,1.62,0,0,0,0-.22c.19-.21-.29-.1-.34-.48h.59a1,1,0,0,1,.35.28c.22.08.46.19.67.28a3.24,3.24,0,0,1-.35.27h-.94c0,.14,0,.29,0,.42h-.71c-.25.09-.79.15-1-.08s.38-.2.39-.4Z" transform="translate(-61.61 -73.9)"/><path class="cls-4" d="M74.4,79.39h.36c.47.06.93.14,1.39.21a.27.27,0,0,0,.13-.07l1.29.16c.25,0,.28.23.58.13a2.92,2.92,0,0,0,.23.29,4.06,4.06,0,0,1-2,.26l-.57-.22c-.18,0-.45.14-.59,0,.29-.36-.44-.09-.58-.28a3.32,3.32,0,0,1-.32-.42Z" transform="translate(-61.61 -73.9)"/><path class="cls-4" d="M79.85,81.18c.37.36.58.56,1,.48.17-.07.28-.2.47-.2-.19,0-.3.13-.47.2C80.43,81.74,80.22,81.54,79.85,81.18Z" transform="translate(-61.61 -73.9)"/><path class="cls-4" d="M79.85,81.1v0Z" transform="translate(-61.61 -73.9)"/><path class="cls-4" d="M83.49,81.48c.08-.21.17-.42.25-.62l1.42.07a1.64,1.64,0,0,0,1.52.09c.52-.07.65-.2.85-.2h.58a1.61,1.61,0,0,1,.25.07l2,.37c.4,0,.79,0,1.18.06l1.18-.12a.28.28,0,0,1,.12.08c.84,0,1.65-.05,2.48-.05.4,0,.79.05,1.18.08s.61.05.93.06a5.51,5.51,0,0,0,.71.08,2.1,2.1,0,0,0,.7.08c.13-.08.23-.19.36-.27h.59l1.19-.13c.26.06.55.11.82.15.23-.14.48-.27.74-.41s.39,0,.59-.07H104c.71.15,1,.17,1.18.08l1.89,0,.78.42a2.2,2.2,0,0,1-1.19.2l-.6.34c-.35,0-.76-.07-1.07.21-.34-.11.06-.63-.56-.5-.22,0-.06.11-.23.14l-1.18,0a1.06,1.06,0,0,1-.48-.21H102c0,.14,0,.27,0,.42l.7.13a2.13,2.13,0,0,1-.14.35h-.69c-.19-.11-.38-.22-.57-.35-.8.22-1.76-.19-2.15.33a1.74,1.74,0,0,0-1.67.48L83.88,82.8a2,2,0,0,0-.1-.42c.55-.15.69-.4.63-.69-.22,0-.46,0-.71-.08a3.62,3.62,0,0,1-.36.42c-.32-.16-.6-.32-.91-.49C82.77,81.52,83.12,81.49,83.49,81.48Z" transform="translate(-61.61 -73.9)"/><path class="cls-4" d="M88.29,75.41c-.33.17-.93-.06-1.41.21a3,3,0,0,1-.23-.35C87.26,75.36,87.53,74.81,88.29,75.41Z" transform="translate(-61.61 -73.9)"/><path class="cls-4" d="M99.34,75.8c.84-.16,2.45,0,3.44-.12.31-.23.41.13.68.08l.58.13h.13a1.8,1.8,0,0,1,1.29.09l-.6.21v.13l-1.06-.08h-.58l-4-.09-.38.13H98c-1.1-.25-2.63,0-3.52-.3-1.66.14-2.83-.33-4.82-.39,3-.29,4.92.36,7.88.07.24,0,.7-.21.71.07Q98.83,75.74,99.34,75.8Z" transform="translate(-61.61 -73.9)"/><path class="cls-4" d="M105.93,76c.22,0,.06-.24.72-.12C106,75.74,106.15,76,105.93,76Z" transform="translate(-61.61 -73.9)"/><path class="cls-4" d="M107.7,75.93l-.81-.07Z" transform="translate(-61.61 -73.9)"/><path class="cls-4" d="M122.52,76.47a19.9,19.9,0,0,0,3.11-.72c.87-.15,1.85-.15,2.72-.33a3.79,3.79,0,0,1,1.17.14l1.64,0c-.14.33-.54.44-1.08.55l-.84.05a2.68,2.68,0,0,0-1.65.13c-.2,0-.56-.13-.72.14-.39-.07-.83-.14-1.07.19h-.12c-.32,0-.61,0-.93-.08a.82.82,0,0,1-.25.07C123.84,76.58,123.18,76.54,122.52,76.47Z" transform="translate(-61.61 -73.9)"/><path class="cls-4" d="M125.74,82.26h.13l0,.47h-.59c-.22-.06-.39-.14-.58-.21Z" transform="translate(-61.61 -73.9)"/><path class="cls-4" d="M131.63,75.51c.22,0,.07-.25.72-.12v.13Z" transform="translate(-61.61 -73.9)"/><path class="cls-9" d="M68.83,75.59c0-.27.06-.63,1-.81l.47-.14c.07.1.14.18.21.27s.22.34.34.5l-.6.06A5.74,5.74,0,0,1,68.83,75.59Z" transform="translate(-61.61 -73.9)"/><path class="cls-9" d="M71.08,75.41c.44-.07.89-.14,1.31-.19.19.19.56.12,1,0a.39.39,0,0,1,.1-.08.27.27,0,0,0,.12-.07l1,.16h.1c.6.38.54.07.71.06H76l1.42.08h.47l.21.08c.16.3.7.22,1,.15h1.18a1.24,1.24,0,0,0,.93.14h1l.58.22-.38.2H80.24l-.7-.15c-.56-.09-.62.1-.84.06s-.3.1-.47.15L77.65,76a14.26,14.26,0,0,1-2.82-.15h-.71l-1.18.06-.45-.29C72,75.58,71.4,75.74,71.08,75.41Z" transform="translate(-61.61 -73.9)"/><path class="cls-9" d="M78.6,80.18c.19-.31.65-.15,1-.19l.33.15a1.54,1.54,0,0,1,.12.13l0,.56a.75.75,0,0,0-.13.06C79.43,80.67,79,80.42,78.6,80.18Z" transform="translate(-61.61 -73.9)"/><path class="cls-9" d="M82.26,80.08h.47a2.29,2.29,0,0,1,.36.07l0,.55-.37.07c-.13-.22-.3-.42-.43-.62Z" transform="translate(-61.61 -73.9)"/><path class="cls-7" d="M66,76.61a1.17,1.17,0,0,1,.25-.13c.22,0,.46,0,.68.08,0-.19,0-.38-.07-.57.42,0,.88-.24,1.28-.06.25-.05.5-.12.73-.19.16.08.3.19.45.27l1.3,0a14.42,14.42,0,0,1,2.36-.12l1.18-.06h.71a14.26,14.26,0,0,0,2.82.15l.58.23c.41.46.74.23,1,.21a4.13,4.13,0,0,0,.49.07c.59.34.87.21.93,0h.24q.7,0,1.41-.06l.23.15c-.16.27-.09.3,0,.35a.63.63,0,0,0,.6-.27,5.56,5.56,0,0,1,2.11-.06l.83.08c.34.09.58-.15.73-.21l.58.08c.44,0,.5.29,1,.28.36.11.31-.2.48-.2l.93.08.7.14c.3-.06.17-.29.48-.27h1.77a4.34,4.34,0,0,1,.48.14,1.62,1.62,0,0,1,0,.21c.63.16.69-.08.94-.07h.12a1.11,1.11,0,0,0,1.3,0l.69-.06c.39.13,1,0,1.17.22h.59l.48.13h.93l.72-.12.71.13.59-.12h.81a4.28,4.28,0,0,1,.46.13l-.24.42H102c-.16-.19-.46-.12-1-.21l-.49.13h-.69a1.73,1.73,0,0,1-.24-.13l-.47.12-.46-.13c-.25.13-.52,0-.85.19s-.54.06-.83.07c0,.09-.09.19-.12.27s.07.19.09.28l-.7.07a.52.52,0,0,1-.7-.21,3.62,3.62,0,0,0-1.31.19l-.24-.08-.09-.06-1.09,0a1.94,1.94,0,0,1-.21-.2H91.46a1.17,1.17,0,0,0-.25.14.91.91,0,0,0-.25-.07l-.2-.28-.48.27-.48-.28H88.4l-.47.13-.49-.08v-.06c-.22,0-.47-.06-.69-.07l-.37.12c-.14-.09-.31-.17-.45-.28H84.29c-.25.11-.55.2-.71,0-.32,0-.61,0-.93-.08-.64.08-1-.15-1.66-.07l-.69-.08a.79.79,0,0,0-.58-.15l-.72.27c-.15-.09-.31-.17-.46-.28h-1l-.6.21-.34-.22L76.07,77c0-.16-.29-.13-.58-.13l-.85.19-.8-.08c-.33.07-.46-.1-.7-.21l-.85.27L72.07,77c-.65-.23-.71,0-1,0H71c0-.09-.06-.18-.08-.28l-.71-.13c-.12.53-.62.15-1,.26-.5-.62-1.3,0-2.23,0a1.34,1.34,0,0,0,0,.2c-.35,0-.71,0-1-.08C65.94,76.84,66,76.74,66,76.61Z" transform="translate(-61.61 -73.9)"/><path class="cls-10" d="M78.7,76.09c.22,0,.28-.15.84-.06l.7.15h2.11l.38-.2H84.5l.8.14h.59c.43.12.65.16.82.22a.44.44,0,0,1,.13-.14l1.64.08c.14.12.31.24.45.35-.17,0-.12.31-.48.2-.54,0-.6-.29-1-.28l-.58-.08c-.15.06-.39.3-.73.21l-.83-.08a5.56,5.56,0,0,0-2.11.06.63.63,0,0,1-.6.27c-.08,0-.15-.08,0-.35l-.23-.15q-.7,0-1.41.06h-.24c-.06.2-.34.33-.93,0a4.13,4.13,0,0,1-.49-.07c-.3,0-.63.25-1-.21C78.4,76.19,78.55,76.15,78.7,76.09Z" transform="translate(-61.61 -73.9)"/><path class="cls-9" d="M84.5,76l.8.14Z" transform="translate(-61.61 -73.9)"/><path class="cls-9" d="M85.89,76.16c.2-.07.09-.36.73-.27a2.84,2.84,0,0,0,.22.35.44.44,0,0,0-.13.14C86.54,76.32,86.32,76.28,85.89,76.16Z" transform="translate(-61.61 -73.9)"/><path class="cls-9" d="M85.79,80.32c.36,0,.48-.4.94-.27l.48.28a1.7,1.7,0,0,0,.34.07c.15-.1.45-.27,1.3-.06-.29,0-.43.26-.74.49h-.58c-.2,0-.33.13-.85.2a6,6,0,0,0-.31-.55C86.17,80.42,86,80.38,85.79,80.32Z" transform="translate(-61.61 -73.9)"/><path class="cls-9" d="M88.48,76.32l.47-.06c0,.07.07.14.11.2s-.08.14-.13.21C88.79,76.56,88.62,76.44,88.48,76.32Z" transform="translate(-61.61 -73.9)"/><path class="cls-10" d="M89.3,80.77a2.53,2.53,0,0,1,1.06-.14v-.06h.25c.15-.11.33-.22.48-.34.39.12,1,0,1.29.29.29,0,.43-.26,1.07-.21.06.13-.16.17-.15.35h-.59l0,.56-1.18.12c-.39,0-.78,0-1.18-.06l-2-.37Z" transform="translate(-61.61 -73.9)"/><path class="cls-9" d="M89.32,80.35l1,.22v.06a2.53,2.53,0,0,0-1.06.14C89.3,80.62,89.31,80.49,89.32,80.35Z" transform="translate(-61.61 -73.9)"/><path class="cls-9" d="M92,76.63c.22-.06,0-.31.82-.14.27,0,.4-.2.72-.12.54-.11.62.2,1.27.43l-.47.12h-.12c-.53-.28-.64-.08-.93-.14a4.34,4.34,0,0,0-.48-.14Z" transform="translate(-61.61 -73.9)"/><path class="cls-9" d="M98.35,76.75h.25l1.63.14h2.11a2,2,0,0,1,.6,0l.38-.35a1.66,1.66,0,0,1-.1-.29h.58l1.06.08a2.26,2.26,0,0,0,.11.22h.22c.56,0,1.11-.05,1.67-.06-.19.27-.33.27-.74.47l-.7-.13a2.57,2.57,0,0,1-.15.41l-.71.06-1.4,0h-.37a4.28,4.28,0,0,0-.46-.13h-.81l-.59.12-.71-.13-.72.12h-.93l-.48-.13A4,4,0,0,0,98.35,76.75Z" transform="translate(-61.61 -73.9)"/><path class="cls-9" d="M101.13,79.9c.37,0,.22-.42.73-.34l.58.13-.74.56Z" transform="translate(-61.61 -73.9)"/><path class="cls-10" d="M105.42,76.82l.7.13c.21-.26,1-.12.74-.47h1.65l.44.35a2.74,2.74,0,0,1,.27-.35l2,0,.36.2c.27-.07,10.41.38,10.69.31l1,.08c-.18.2-.34.4-.52.62-.32,0-10.48-.51-10.8-.51l-.33-.22c-.6.17-.83.27-1.1.34l-.93-.07-.59-.08h-.59A2,2,0,0,1,108,77l-.38.21h-1.52l-.13.06-.71-.07A2.57,2.57,0,0,0,105.42,76.82Z" transform="translate(-61.61 -73.9)"/><path class="cls-9" d="M108.73,76.35a4.58,4.58,0,0,0,.49.15,2.74,2.74,0,0,0-.27.35l-.44-.35C108.58,76.45,108.66,76.41,108.73,76.35Z" transform="translate(-61.61 -73.9)"/><path class="cls-9" d="M124.5,76.63a.82.82,0,0,0,.25-.07c.32,0,.61.07.93.08h.12c0,.08,0,.15,0,.28l-.6.14h-.71C124.49,76.91,124.49,76.78,124.5,76.63Z" transform="translate(-61.61 -73.9)"/><path class="cls-9" d="M124.33,82.11l1.07-.27.36.08c0,.11,0,.23,0,.34l-1.07.27-.36-.08C124.31,82.34,124.32,82.22,124.33,82.11Z" transform="translate(-61.61 -73.9)"/><path class="cls-9" d="M129.24,76.18l.84-.05c.14.12.3.24.45.35a.91.91,0,0,1,.85-.34c.14.12.43.19.45.35v.06c-.32.06-.64.1-.94.14h-.37l-.81.14-.71-.15C129.08,76.51,129.16,76.36,129.24,76.18Z" transform="translate(-61.61 -73.9)"/><path class="cls-9" d="M134.39,78.94c-.17-.45.4-.61.3-1l.13-.13h.12l.46.13c1.08,0,.54.54.66,1-.23.11-.4.23-.61.34L135.1,79h-.71Z" transform="translate(-61.61 -73.9)"/><path class="cls-9" d="M135.28,80.27l.58.2c-.06.16.07.38-.5.49C135.09,80.63,134.83,80.3,135.28,80.27Z" transform="translate(-61.61 -73.9)"/><path class="cls-7" d="M96.4,80.13,97.46,80l.84,0c0,.2,0,.4,0,.62h-.71l-.12-.14-1-.14A1.24,1.24,0,0,0,96.4,80.13Z" transform="translate(-61.61 -73.9)"/><path class="cls-7" d="M96.7,79.17c.32,0,.68.06.69-.07A5.27,5.27,0,0,0,98,79c.58.14.81,0,.71-.12.1,0,.18,0,.25-.07h.47a1.32,1.32,0,0,0,1.29.16c-.14.29-.27.59-.41.89H100l-1.52,0-1.75-.36C96.69,79.36,96.69,79.25,96.7,79.17Z" transform="translate(-61.61 -73.9)"/><path class="cls-7" d="M101.69,80.32H103a4.1,4.1,0,0,0,.1.48c-.2,0-.4.06-.59.07-.26-.16-.55-.32-.81-.5Z" transform="translate(-61.61 -73.9)"/><path class="cls-7" d="M103.16,77.27l1.4,0c0,.1-.09.18-.12.28-.36,0-.78-.06-1,.2h-.35C103.14,77.6,103.15,77.45,103.16,77.27Z" transform="translate(-61.61 -73.9)"/><path class="cls-10" d="M103,80.33l.83-.33a3.69,3.69,0,0,0,2.74-.2,1.34,1.34,0,0,1,0-.2h1.3c0,.09,0,.19,0,.28s.14.18.21.27c-.13.12-.23.23-.36.34.21.06.46.11.7.16l0,.62.69-.2.84.07c-.14.17-.27.33-.37.48l-.6.07-.57-.35h-.49l-.78-.42a1.21,1.21,0,0,1,0-.2,6.33,6.33,0,0,0-1.89,0,1.27,1.27,0,0,0,0,.2c-.21.09-.47.07-1.18-.08h-.93A4.1,4.1,0,0,1,103,80.33Z" transform="translate(-61.61 -73.9)"/><path class="cls-7" d="M105.21,80.7a6.33,6.33,0,0,1,1.89,0,1.21,1.21,0,0,0,0,.2l-1.89,0A1.27,1.27,0,0,1,105.21,80.7Z" transform="translate(-61.61 -73.9)"/><path class="cls-7" d="M105.26,79.66a.7.7,0,0,1,.61-.34,4.69,4.69,0,0,1,.46.21,4.69,4.69,0,0,0-.46-.21A.7.7,0,0,0,105.26,79.66Z" transform="translate(-61.61 -73.9)"/><path class="cls-7" d="M107.87,79.61l.69-.07c.06.18.23.34-.13.62h-.37c-.07-.09-.14-.19-.21-.27S107.86,79.7,107.87,79.61Z" transform="translate(-61.61 -73.9)"/><path class="cls-11" d="M109.5,77.62a.89.89,0,0,0,.93,0h1.08l10.55.57.62-.47.48.13,1.52,0a7.45,7.45,0,0,0,1.06.07l.57.22c.37,0,.45.41,1.28.43a2.53,2.53,0,0,0,.95-.28c0-.33.26-.36.85-.27a1.91,1.91,0,0,1,.25-.13,2.26,2.26,0,0,1,.13-.63l.95.22.82-.13.23.27c.24.06.46.11.7.15-.13.15-.26.27-.39.42l-.83.34c-.19.28-.79.55-.42.89l-.24.49a2.5,2.5,0,0,1,.31.48h.25c.11.19.2.38.31.57-.2.08-.4.18-.6.27s-.16.18-.24.27l-.5.27c-.32,0-.62.05-.94.06a1,1,0,0,1-.25.14l-.23.13-.57-.41-.12-.07-.84.19c-.47.06-.94.1-1.41.14l-.36-.08-.67-.28a.58.58,0,0,1,.6-.21l.48-.27c-.41-.58-1.13-.07-1.89-.15l-.7-.15-.7-.15c-.27-.12-10.4-.72-10.66-.85h-.24c-.22-.13-.06-.29-.33-.4l-.85.26c-.13-.2-.33-.23-.92-.08a5.51,5.51,0,0,1-.71-.08l0-.62a1.67,1.67,0,0,0,.35-.07l1.77,0c.2-.14.63,0,.84-.2-1.25-.06-1.48-.72-2.67-.51l-.48-.21Z" transform="translate(-61.61 -73.9)"/><path class="cls-7" d="M108.4,80.66c.32-.07.49.09.66.42l-.69.2Z" transform="translate(-61.61 -73.9)"/><path class="cls-7" d="M109.9,81.15h.34L111,81c.42-.06.12-.5.73-.34.41.12,10.94.57,10.9.94l.45.27c-.59,0-11.05-.42-11.64-.39l-.48.29h-.47c-.32-.07-.63-.11-.92-.16C109.63,81.48,109.76,81.32,109.9,81.15Z" transform="translate(-61.61 -73.9)"/><path class="cls-7" d="M110.45,77.34c.27-.07.5-.17,1.1-.34l.33.22a4.72,4.72,0,0,0-.37.41h-1.08C110.44,77.52,110.44,77.44,110.45,77.34Z" transform="translate(-61.61 -73.9)"/><path class="cls-7" d="M122.68,77.73c.18-.22.34-.42.52-.62l1.28-.06h.71c0,.11,0,.23,0,.34l-.49.42-1.52,0Z" transform="translate(-61.61 -73.9)"/><path class="cls-7" d="M128,81.59l.12.07c.27.09.53.2.8.28l-.23.13c-.25,0-.47.06-.72.07l-.24-.08A3.17,3.17,0,0,0,128,81.59Z" transform="translate(-61.61 -73.9)"/><path class="cls-7" d="M128.4,76.67H129l.71.15c0,.09,0,.19,0,.28-.37,0-.52.19-.84.12s-.08-.28-.45-.35A1.27,1.27,0,0,0,128.4,76.67Z" transform="translate(-61.61 -73.9)"/><path class="cls-8" d="M130.62,81.47c.08-.09.16-.19.24-.27s.4-.19.6-.27c-.11-.19-.2-.38-.31-.57h-.25a2.5,2.5,0,0,0-.31-.48l.24-.49c-.37-.34.23-.61.42-.89l.83-.34c.1.36.3.42.21.55a1.26,1.26,0,0,1-.25.07c-.86.14-.56.4-1,.54l.83.22a3.16,3.16,0,0,0,.33.21,1.48,1.48,0,0,0,0,.21l-1,.34h.94a2.7,2.7,0,0,0,.09.48l.7.22h1.28a1.15,1.15,0,0,1,.23.21c-.32.46-1,.36-1.9.33l-.6.06-.69-.28-.24.28a1,1,0,0,0,.11.2l-1.07-.08Z" transform="translate(-61.61 -73.9)"/><path class="cls-7" d="M132,78.78a1.26,1.26,0,0,0,.25-.07h.59c-.06.22-.09.42-.15.62-.26.13-.12.39-.49.42a3.16,3.16,0,0,1-.33-.21l-.83-.22C131.48,79.18,131.18,78.92,132,78.78Z" transform="translate(-61.61 -73.9)"/><path class="cls-7" d="M131.32,81.34l.69.28-.82.2a1,1,0,0,1-.11-.2Z" transform="translate(-61.61 -73.9)"/><path class="cls-7" d="M131.27,80.3l1-.34c.07.06.14.14.23.21.7.29.87-.21,1.41-.13.08-.12.16-.22.26-.35l1.18,0a4.42,4.42,0,0,0-.15.48l-.94.21c0,.23.05.46.06.69H133l-.7-.22a2.7,2.7,0,0,1-.09-.48Z" transform="translate(-61.61 -73.9)"/><path class="cls-7" d="M133.6,76.44a1.28,1.28,0,0,0-.24-.22v-.06l1.08-.13.58.14.1.06c-.09.26-.18.52-.26.77l-.47-.08c-.44.13-.89.22-1.31.34C133.25,77,133.43,76.71,133.6,76.44Z" transform="translate(-61.61 -73.9)"/><path class="cls-10" d="M132.08,78.16c.13-.15.26-.27.39-.42a2.41,2.41,0,0,0,.35-.07,1.59,1.59,0,0,0,.13-.13,1.22,1.22,0,0,1,.14-.28c.42-.12.87-.21,1.31-.34l.47.08c0,.27,0,.56.07.84h-.12l-.13.13c.1.37-.47.53-.3,1h.71l.35.35a2.44,2.44,0,0,0-.14.34l-1.18,0c-.1.13-.18.23-.26.35-.54-.08-.71.42-1.41.13-.09-.07-.16-.15-.23-.21a1.48,1.48,0,0,1,0-.21c.37,0,.23-.29.49-.42.06-.2.09-.4.15-.62h-.59C132.38,78.58,132.18,78.52,132.08,78.16Z" transform="translate(-61.61 -73.9)"/><path class="cls-7" d="M134,79.56c-.16-.36-.07-.52.37-.62h.13l0,.41C134.34,79.42,134.21,79.56,134,79.56Z" transform="translate(-61.61 -73.9)"/><path class="cls-10" d="M68.83,75.59l1.43-.12.6-.06h.22c.32.33,1,.17,1.41.21l.45.29a14.42,14.42,0,0,0-2.36.12l-1.3,0c-.15-.08-.29-.19-.45-.27Z" transform="translate(-61.61 -73.9)"/><path class="cls-10" d="M73.15,78.75h.94c0,.1,0,.18,0,.29s.23.23.33.34l-.11.06c0-.11-.39,0-.94-.21a.94.94,0,0,1-.22-.07C73.14,79,73.15,78.89,73.15,78.75Z" transform="translate(-61.61 -73.9)"/><path class="cls-10" d="M74.12,75.85h0Z" transform="translate(-61.61 -73.9)"/><path class="cls-10" d="M79.63,78.88c.22,0,.46.06.68.07a2.83,2.83,0,0,1,.23.28,1.7,1.7,0,0,1-.14.35c-.26.24-.69,0-.83.41-.32,0-.78-.12-1,.19l-.22-.06a2.92,2.92,0,0,1-.23-.29c.22-.43-.61-.45-.66-.83.15-.07.25-.18.47-.14Z" transform="translate(-61.61 -73.9)"/><path class="cls-10" d="M81.79,80.15h.47c.13.2.3.4.43.62a2,2,0,0,1-.59.07c-.14-.08-.31-.15-.46-.22C81.7,80.47,81.73,80.31,81.79,80.15Z" transform="translate(-61.61 -73.9)"/><path class="cls-10" d="M83.79,80c.29.08.37-.16.59-.14s.49.19.7.29l.71.14c.19.06.38.1.58.15a6,6,0,0,1,.31.55,1.64,1.64,0,0,1-1.52-.09l-1.42-.07c-.22-.06-.46-.1-.68-.15l0-.55a2.29,2.29,0,0,0-.36-.07c.47-.06.07-.43.61-.34A4.92,4.92,0,0,1,83.79,80Z" transform="translate(-61.61 -73.9)"/><path class="cls-10" d="M94.07,79.56a2,2,0,0,1,.12.21l1.17.08a.76.76,0,0,1,.13-.07l.91.35a1.24,1.24,0,0,1,0,.15,3.18,3.18,0,0,1-.26.27H94.49c-.19-.09-.38-.2-.58-.28,0-.1,0-.19,0-.29a1.61,1.61,0,0,1-1-.21c0-.12,0-.23,0-.35C93.29,79.46,93.69,79.5,94.07,79.56Z" transform="translate(-61.61 -73.9)"/><path class="cls-10" d="M93.29,76.78l1,.14h-.12c-.25,0-.31.23-.94.07A1.62,1.62,0,0,0,93.29,76.78Z" transform="translate(-61.61 -73.9)"/><path class="cls-10" d="M98.3,80a.61.61,0,0,1,.13-.15l1.52,0h.35l.83.08.57.35s0,0,0,.07v.06c-.25.13-.48.23-.73.34-.32-.06-.61-.13-.92-.21a1.74,1.74,0,0,1-.12-.14c-.52.09-1,.17-1.53.27l-.12-.07C98.28,80.35,98.29,80.15,98.3,80Z" transform="translate(-61.61 -73.9)"/><path class="cls-10" d="M124.73,81.56l.67.28-1.07.27a.37.37,0,0,0-.12-.13C124.48,81.93,124.4,81.67,124.73,81.56Z" transform="translate(-61.61 -73.9)"/><path class="cls-10" d="M125.76,81.92c.47,0,.94-.08,1.41-.14a3.87,3.87,0,0,0,.47.28l-1.77.21h-.13C125.75,82.15,125.76,82,125.76,81.92Z" transform="translate(-61.61 -73.9)"/><path class="cls-10" d="M127.1,76.73l.47-.07h.83a1.27,1.27,0,0,1,0,.2c-.43-.09-.28.21-.6.28l-.82-.22Z" transform="translate(-61.61 -73.9)"/><path class="cls-10" d="M134.22,80.33l.94-.21a.42.42,0,0,0,.12.15c-.45,0-.19.36.08.69-.3.08-.57.18-.85.27a1.15,1.15,0,0,0-.23-.21C134.27,80.79,134.23,80.56,134.22,80.33Z" transform="translate(-61.61 -73.9)"/><path class="cls-8" d="M67,76.83c.93,0,1.73-.6,2.23,0,.35-.11.85.27,1-.26a.41.41,0,0,1,.13-.08c.19.08.39.14.58.21,0,.1.06.19.08.28h.12c.25,0,.31-.22,1,0l.22.07.85-.27c.24.11.37.28.7.21l.8.08.85-.19c.29,0,.61,0,.58.13l.58.08.34.22.6-.21h1c.15.11.31.19.46.28l.72-.27a.79.79,0,0,1,.58.15l.69.08c.64-.08,1,.15,1.66.07.32,0,.61.07.93.08.16.21.46.12.71,0h1.65c.14.11.31.19.45.28-.37.4-1,.22-1.54.28l-.71.05-.84-.07c-.36-.11-.45.2-.93.13a.71.71,0,0,0,0,.14c-.29,0-.54.49-.93-.08a5.63,5.63,0,0,0,.59-.14l-.93-.41-1.18.12c.11.16.22.33.34.49L80,78.4a5.93,5.93,0,0,0-.59-.07l-1.29-.16A.47.47,0,0,0,78,78h-.81v.13A2.08,2.08,0,0,1,76,78.08a5.62,5.62,0,0,0-1.57.41c-.21-.09-.45-.2-.67-.28a1,1,0,0,0-.35-.28h-.59l-.21-.14h-.84c-.38-.13-.77-.28-1.15-.43a13,13,0,0,0-1.89.06c-.33-.25-1.13-.09-1.75-.37A1.34,1.34,0,0,1,67,76.83Z" transform="translate(-61.61 -73.9)"/><path class="cls-11" d="M82.37,78.21c.48.07.57-.24.93-.13l.84.07.71-.05c.52-.06,1.17.12,1.54-.28l.37-.12c.22,0,.47,0,.69.07v.06l.49.08.44.42c.56-.27,1.37-.26,1.4,0l.5-.2.69-.06a.91.91,0,0,1,.25.07,2.25,2.25,0,0,0,.22.35.57.57,0,0,1,0,.13c.07.15.14.28.2.42l-.59.07L90.11,79c-.17-.12-.47,0-.71-.08l-.83-.14-.22-.07h-.46l-.84.07a2,2,0,0,1-.26.2c-.28-.24-1.1,0-1-.43H85l-.83-.06a6.8,6.8,0,0,0-1.76-.09A.71.71,0,0,1,82.37,78.21Z" transform="translate(-61.61 -73.9)"/><path class="cls-8" d="M88.4,77.78h1.4l.48.28c.08-.08.15-.18.23-.27h.25l.2.28-.69.06-.5.2c0-.27-.84-.28-1.4,0l-.44-.42Z" transform="translate(-61.61 -73.9)"/><path class="cls-8" d="M111.88,77.22c.32,0,10.48.51,10.8.51l.48.13c-.29.36-.77.21-1.1.34l-10.55-.57A4.72,4.72,0,0,1,111.88,77.22Z" transform="translate(-61.61 -73.9)"/><path class="cls-8" d="M128,81.59l.12.07c-.13.13-.26.28-.39.4h-.1a3.87,3.87,0,0,1-.47-.28Z" transform="translate(-61.61 -73.9)"/><path class="cls-11" d="M74.64,77.17c.19,0,.39.09.58.15.54,0,.86.05.94.36a.53.53,0,0,0-.13.13l-2-.3Z" transform="translate(-61.61 -73.9)"/><path class="cls-11" d="M81.09,77.72l.93.41a5.63,5.63,0,0,1-.59.14c-.32,0-.64,0-1,.06h-.22c-.12-.16-.23-.33-.34-.49Z" transform="translate(-61.61 -73.9)"/><path class="cls-11" d="M98,78.69a.4.4,0,0,0,.13-.07l.57.22c.1.13-.13.26-.71.12C98,78.88,98,78.79,98,78.69Z" transform="translate(-61.61 -73.9)"/><path class="cls-11" d="M107.61,77.66c.12.06.24.1.36.15-.19.34-.72.09-1,.26l-.21-.27Z" transform="translate(-61.61 -73.9)"/><path class="cls-6" d="M74.62,75.24h.71v.06C75.16,75.31,75.22,75.62,74.62,75.24Z" transform="translate(-61.61 -73.9)"/><path class="cls-6" d="M74.52,75.24h0Z" transform="translate(-61.61 -73.9)"/><path class="cls-4" d="M107.7,75.93c.43-.28,1.28,0,1.66-.19.1-.13.32,0,.82.15a5.15,5.15,0,0,1,1.66-.2c.19.1,9.92.78,10.31.85-.32.06-10.48-.41-10.81-.37s-.78-.09-1.16-.15l-1.44.13h-.68Z" transform="translate(-61.61 -73.9)"/><path class="cls-10" d="M88.93,76.67c0-.07.08-.14.13-.21h.81a3.74,3.74,0,0,1,1.17.15c-.31,0-.18.21-.48.27l-.7-.14Z" transform="translate(-61.61 -73.9)"/><path class="cls-10" d="M92.68,81.21a.28.28,0,0,1,.12.08A.28.28,0,0,0,92.68,81.21Z" transform="translate(-61.61 -73.9)"/><path class="cls-10" d="M94.34,76.92l.47-.12.83.13A1.11,1.11,0,0,1,94.34,76.92Z" transform="translate(-61.61 -73.9)"/></g></g><path class="cls-1" d="M65.58,84l75.86.24" transform="translate(-61.61 -73.9)"/><g class="cls-3"><g class="cls-3"><path class="cls-4" d="M94.38,80.68l-1-.17c0-.12,0-.23,0-.35s-.23-.06-.36-.07-.13.27-.17.4-.36.18-.52.28c-.64,0-12-.64-12.59-.61l-1.26-.11a.8.8,0,0,1-.13-.13l0-.35c1,.23,1.2-.31,1.81-.37,1.22.35,12.18.36,13.49.62.28.07.57.12.86.17.17.2.31.43.46.63Z" transform="translate(-61.61 -73.9)"/><path class="cls-5" d="M92.88,80.49c0-.13-.08-.32.17-.4s.29,0,.36.07,0,.23,0,.35Z" transform="translate(-61.61 -73.9)"/><path class="cls-4" d="M66.64,86.21c-.73.18-.69-.34-.06-.62l.1.06C66.67,85.83,66.65,86,66.64,86.21Z" transform="translate(-61.61 -73.9)"/><path class="cls-5" d="M66.68,85.65c-.23.25.06.58-.41.48C66.28,86,66.25,85.79,66.68,85.65Z" transform="translate(-61.61 -73.9)"/><path class="cls-6" d="M136.66,88.42l-1.28.1c-.5.17-1,.35-1.45.53a3.91,3.91,0,0,0-.35-.36c.24-.35-.31-.43-.44-.78l-1,.12a2.83,2.83,0,0,0,0-.29,3.1,3.1,0,0,1,1.28,0c.43-.1.84-.16,1,0,.46,0,.94-.1,1.43-.16h.24c.12.16.23.33.35.5A3,3,0,0,1,136.66,88.42Z" transform="translate(-61.61 -73.9)"/><path class="cls-4" d="M133.93,89.05a4.43,4.43,0,0,0-.51.06,9.29,9.29,0,0,1-1.5-.26c-2.62-.17-5.31-.74-8.14-.63a41.67,41.67,0,0,1-4.51-.73l1.15-.11a11.83,11.83,0,0,0,3.7,0c1.77.09,2.64.58,4.32.19h.5c.61.31,1,.56,1.51.39,0-.1,0-.19,0-.28l.77,0v.06l.77,0h.1a2.83,2.83,0,0,1,0,.29l1-.12c.13.35.68.43.44.78A3.91,3.91,0,0,1,133.93,89.05Z" transform="translate(-61.61 -73.9)"/><path class="cls-6" d="M130.45,87.92c-.52.17-.9-.08-1.51-.39l1.53.11C130.47,87.73,130.46,87.82,130.45,87.92Z" transform="translate(-61.61 -73.9)"/><path class="cls-6" d="M128.44,87.52c-1.68.39-2.55-.1-4.32-.19a11.83,11.83,0,0,1-3.7,0l-1.15.11H119a2,2,0,0,0-.24-.35c-.52.26-1.17,0-1.53.17-.5-.07-1-.12-1.53-.18-2.14-.1-3.41-.59-5.2-.48-1-.3-2.62-.1-3.8-.37l-.87,0-.41.11-4.32-.16a1.82,1.82,0,0,0-.11-.3l.43-.33a2.72,2.72,0,0,0,.64,0l.87,0,1.41,0,1.77.17.55-.33h.64c.22.27.84.11,1.26.25l.75,0,.89.15c.7.24.78.56,1.37.46.34.08.49-.11.78-.11.87.18.65-.07.89-.12l1,0a4.64,4.64,0,0,0,1.27.18l.87,0a2,2,0,0,1,.12.21c.16,0,.35,0,.51-.06.61,0,1.19.07,1.77.12a2,2,0,0,1,.24.35c.68.1.57-.19.79-.26l.5,0h.14l.86.15,1.91,0,.62.23.77,0,1.27.17,1.27,0c.34.07.68.12,1,.17Z" transform="translate(-61.61 -73.9)"/><path class="cls-6" d="M126.45,82l-.13.05c-.73.14-1.28.06-1.8.18L124,82a1.83,1.83,0,0,0-.64.05c-.13,0-.27,0-.4.06l-.73-.16c.09-.2.19-.4.28-.61l1.15,0,1.16.11c.22,0,.33-.13.52-.19.49-.08.71.13,1.11.5a.56.56,0,0,1,0,.07A1.5,1.5,0,0,1,126.45,82Z" transform="translate(-61.61 -73.9)"/><path class="cls-7" d="M132.66,84.23a2.94,2.94,0,0,0-.39.26,6.36,6.36,0,0,1-1.71.38,2.46,2.46,0,0,0-1.27-.1.49.49,0,0,1,0,.12l-.87,0a.8.8,0,0,1-.13-.13c-.47-.07-.92-.13-1.39-.18q-.31,0-.63-.09l-.27.07h-.24l-1,0c-.41-.58-.69,0-1-.1a8.26,8.26,0,0,1-1.9-.12l-.9-.08-.87,0c.08-.43-.81-.21-1.11-.44a3.2,3.2,0,0,0-.39-.16l-.77,0c-.22.07-.31.28-.65.2a2.32,2.32,0,0,0-.35-.35,2.84,2.84,0,0,1-.76-.1h-.24l-.41.19c-.23-.09-.49-.2-.75-.29l-.24.06-1.67-.11h-.37c0-.12,0-.23,0-.35a1.83,1.83,0,0,0-1.12-.23c0-.1,0-.19,0-.29l.51,0c.69.06.84-.18,1.16-.19H113l.49.23c.58.12.86-.16,1.3-.25h.26l1.12.25h.51c.91.23,1.24.06,1.41,0a2,2,0,0,1,.37.08c.18.09.33.19.51.29.49.14.63-.25,1-.25l.76.15.74.3c.24,0,.34-.22.65-.12.15.09.3.19.48.28.58.1.16-.28.67-.33l.5,0v-.08l.5,0c.07-.16.11-.32.17-.47.52-.12,1.07,0,1.8-.18,0,.19,0,.38,0,.57s.07.09.12.13l.36.15c-.16.37-.62.16-.9.4a1.31,1.31,0,0,0-.16.34,2,2,0,0,0,.24.28l.74.09,1.8,0c.24,0,.35-.06.52-.13-.05-.38-1-.42-.71-.84a9.23,9.23,0,0,0,2.16.26c.5.08,1,.17,1.5.24h.4c.09.11.22.23.34.35S132.67,84.13,132.66,84.23Z" transform="translate(-61.61 -73.9)"/><path class="cls-8" d="M118.64,84l-.91,0h-.51L117,84l-.89-.15c-.26,0-.59,0-.76-.1l-1-.17-.64.06c.06.15.13.28.2.42a.53.53,0,0,1,0,.13,2.5,2.5,0,0,1,.24.36,1.46,1.46,0,0,1-.28.13h-.5l-.64,0-.22-.2-1.17,0-.1-.06L111,84.3a4.56,4.56,0,0,1-1.43.16.58.58,0,0,0-.75-.22l-.75.05c0,.09.07.18.09.28s-.1.18-.13.27l-.91,0c-.36.15-.64.06-.92.18l-.49-.14-.52.11a1.91,1.91,0,0,0-.25-.13l-.75,0-.54.11c-.63-.1-1,0-1.12-.23h-.64c-.09.12-.18.27-.27.41h-.4c0-.18,0-.33,0-.49h-.37c-.21.25-.65.17-1,.17,0,.1-.1.19-.13.29l-.77,0-.77-.08s-.08,0-.14,0l-1.64,0-.42.21a2.43,2.43,0,0,0-.36-.16h-.63c-.22,0-.43-.06-.64-.09l-1-.08c0-.11,0-.19,0-.29a1,1,0,0,1,1,0l.93-.25-.52-.21c-1.29.18-1.53-.48-2.88-.57.23-.21.7,0,.92-.18l1.91,0a3.38,3.38,0,0,1,.38-.06c0-.2,0-.42.05-.62-.27,0-.5-.07-.77-.09-.65.14-.86.11-1-.1l-.92.25c-.29-.12-.12-.28-.34-.41h-.27c-.28-.14-11.23-.94-11.51-1.06s-.52-.12-.76-.17-.49-.09-.76-.16c-.81-.09-1.6.41-2-.18l.53-.26a.67.67,0,0,0,.65-.2c.36-.11.27-.37.57-.41l1.26.11.49.28c-.06.36,11.32,1,11.77,1.14.65.18.34-.26.79-.32l.78-.11H94l.9.08c.19.34.36.5.71.44s.53.1.76.16l-.4.34h-.4c-.39.27-.22.44-.15.61l.75,0,1.4,0,.26.07.49.22q.52,0,.66-.33c.29.07.58.12.9.17a1.14,1.14,0,0,1,.75-.19c.19.07.34.14.52.22s.59-.13.89-.18l.63.15c.55.08.39-.31.79-.33l.9.1-.47.88a1.57,1.57,0,0,1,1.4.18h.5l.27-.06.76.16c0-.1,0-.19,0-.27l.65-.13c0-.13.4,0,.75,0,0-.09,0-.19,0-.28.43,0,.86-.06,1.29-.11l.75.24.78-.2c.42.07.85.12,1.27.18h.37l1.67.11.24-.06c.26.09.52.2.75.29l.41-.19H116a2.84,2.84,0,0,0,.76.1,2.32,2.32,0,0,1,.35.35,4.19,4.19,0,0,1,1.42-.18,3.2,3.2,0,0,1,.39.16A2.26,2.26,0,0,0,118.64,84Z" transform="translate(-61.61 -73.9)"/><path class="cls-6" d="M117.53,81.89c-.34.22-.49.47-.81.47h-.51c0-.15,0-.28,0-.42.35,0,.67-.07,1-.12Z" transform="translate(-61.61 -73.9)"/><path class="cls-9" d="M112.55,82l-.64,0-1.28.1-.9,0-.88,0c-.12-.21-.23-.43-.35-.63l-.79.25-.4.34-.77,0-.13-.08-1.66.25a1,1,0,0,0-.13-.15l-1-.23-.79.33c-.28-.18-.59-.35-.87-.52l.8-.39.89.16,1.29-.11.64,0c.14-.08.25-.18.39-.27a2.78,2.78,0,0,1,.76.1c.27,0,.5.05.77.09l1,.08,1.27.11h2.69a.28.28,0,0,0,.12.08C112.58,81.61,112.56,81.79,112.55,82Z" transform="translate(-61.61 -73.9)"/><path class="cls-6" d="M111.75,82.31l-.51,0-.61-.29,1.28-.1C111.92,82.14,111.68,82.18,111.75,82.31Z" transform="translate(-61.61 -73.9)"/><path class="cls-6" d="M111.05,83l-.78.2-.75-.24c-.43,0-.86.08-1.29.11l-1.88-.39a.62.62,0,0,0,.14-.14l.91,0c.37-.05.78-.08,1.15-.11l1.12.3,1.27.11C111.06,83,111.06,83,111.05,83Z" transform="translate(-61.61 -73.9)"/><path class="cls-6" d="M108.56,82.28l-1.13-.16a1.14,1.14,0,0,1-.12-.14l.4-.34.79-.25c.12.2.23.42.35.63A3.79,3.79,0,0,0,108.56,82.28Z" transform="translate(-61.61 -73.9)"/><path class="cls-6" d="M102,82.75c-.3,0-.59.12-.89.18s-.33-.15-.52-.22a1.14,1.14,0,0,0-.75.19c-.32-.05-.61-.1-.9-.17q-.14.28-.66.33l-.49-.22-.26-.07c0-.08,0-.13,0-.21a4.3,4.3,0,0,1,3-.14l.9-.32,1.41,0v.07C102.54,82.39,102.29,82.57,102,82.75Z" transform="translate(-61.61 -73.9)"/><path class="cls-6" d="M99.33,86.08a.53.53,0,0,0,0,.13l-.66.2-.5,0c-.24,0-.07.25-.78.12h-.27l-.87-.08-.38-.23-.74,0c-.54,0-1,.06-1.55.11s-.84-.13-1.26-.18S81,85.48,80.63,85.53a2.9,2.9,0,0,0-.41.06c-.71-.08-1.42-.14-2.14-.2,0-.14,0-.27,0-.42.45,0,.93,0,1.38,0s.69.08,1,.1,11.26.58,11.55.52c.13.07.26.13.39.21l2.15,0,.51.16.25-.14.51,0,1.27,0c.61,0,1.2,0,1.81,0h.24A.2.2,0,0,1,99.33,86.08Z" transform="translate(-61.61 -73.9)"/><path class="cls-8" d="M77.37,84.61c0,.11,0,.23,0,.34l-.65.13-1.28,0-.88-.24c-.35.06-.19.37-.66.27s0-.39-.48-.36-.51.09-.91.11c0,.08,0,.18,0,.27-.3.05-.59.09-.89.12h-.4l-1,.12v.06l-.52.2a5.36,5.36,0,0,0-1.15,0,1.79,1.79,0,0,1-.25-.22c.18-.27.39-.54.57-.81a2,2,0,0,0,.16-.28,1.79,1.79,0,0,1,.14-.13c.14,0,.24,0,.38-.06l.76.16a2.78,2.78,0,0,0,.24.28l.89-.12,1,.24a1.68,1.68,0,0,0,.16-.63l.28-.12c.63.1.87.08.92-.25a2.65,2.65,0,0,1,1-.26c.9,0,1,.43,1.38.45l.62.23a7.17,7.17,0,0,1,1.13.09C77.74,84.34,77.54,84.48,77.37,84.61Z" transform="translate(-61.61 -73.9)"/><path class="cls-6" d="M76.68,85.35c-.27.33-.74.26-1.16.18-.18.27-.57.17-.78.12a3.06,3.06,0,0,1-1.79.1c.09-.17.18-.33.28-.49l.63,0,.91,0,.51,0,.14-.2,1.28,0C76.69,85.21,76.68,85.28,76.68,85.35Z" transform="translate(-61.61 -73.9)"/><path class="cls-6" d="M73.65,79.87c.27-.06,0-.3.78-.05Z" transform="translate(-61.61 -73.9)"/><path class="cls-6" d="M72,85.78c-.59.1-1,.21-1.18.54a4.43,4.43,0,0,0-.51.06l-.77,0a.53.53,0,0,0,0,.13,1.53,1.53,0,0,0-1,.19c-.46.07-.66-.16-1-.25a5,5,0,0,0-.21-.62l1.18-.12v-.06a5.36,5.36,0,0,1,1.15,0l.52-.2.87.37c.48,0,.08-.29.54-.34Z" transform="translate(-61.61 -73.9)"/><path class="cls-4" d="M134.43,84.33c-.24,0-.51,0-.77.06,0,.07,0,.14,0,.21-.2.21.31.11.36.49l-.64,0a1.13,1.13,0,0,1-.37-.28l-.72-.3a2.94,2.94,0,0,1,.39-.26l1,0,0-.42.77,0c.27-.08.86-.14,1,.1s-.42.19-.43.39Z" transform="translate(-61.61 -73.9)"/><path class="cls-4" d="M132.34,83.59h-.4c-.5-.07-1-.16-1.5-.24a.45.45,0,0,0-.14.06l-1.39-.18c-.27,0-.3-.24-.63-.14a2.1,2.1,0,0,0-.24-.3,4.8,4.8,0,0,1,2.2-.22l.62.24c.19,0,.49-.14.64,0-.33.36.47.1.61.29a4.58,4.58,0,0,1,.34.43Z" transform="translate(-61.61 -73.9)"/><path class="cls-4" d="M126.48,81.7c-.4-.37-.62-.58-1.11-.5-.19.06-.3.19-.52.19.22,0,.33-.13.52-.19C125.86,81.12,126.08,81.33,126.48,81.7Z" transform="translate(-61.61 -73.9)"/><path class="cls-4" d="M126.47,81.77a.56.56,0,0,0,0-.07A.56.56,0,0,1,126.47,81.77Z" transform="translate(-61.61 -73.9)"/><path class="cls-4" d="M122.54,81.33c-.09.21-.19.41-.28.61l-1.54-.1a1.86,1.86,0,0,0-1.64-.11c-.56.06-.7.18-.92.18l-.63,0-.26-.08-2.12-.4c-.43,0-.85-.06-1.27-.09l-1.29.1a.28.28,0,0,1-.12-.08h-2.69l-1.27-.11-1-.08c-.27,0-.5-.07-.77-.09A2.78,2.78,0,0,0,106,81c-.14.09-.25.19-.39.27l-.64,0-1.29.11-.89-.16-.8.39-.64.06-1,0a2.43,2.43,0,0,0-1.27-.11l-2,0L96.17,81a2.46,2.46,0,0,1,1.29-.17c.22-.11.41-.22.66-.33s.82.08,1.16-.19c.36.11-.08.62.6.51.23.05.06-.12.25-.14l1.28,0a1.2,1.2,0,0,1,.51.22l.64,0c0-.15,0-.28,0-.42l-.76-.15A1.77,1.77,0,0,1,102,80h.74c.21.13.41.23.61.37.87-.21,1.9.22,2.34-.29a2,2,0,0,0,1.82-.44l14.64.37a2.86,2.86,0,0,0,.1.42c-.59.15-.74.39-.69.68l.77.09a3.85,3.85,0,0,1,.4-.41c.33.17.64.34,1,.5Z" transform="translate(-61.61 -73.9)"/><path class="cls-4" d="M117.23,87.3c.36-.16,1,.09,1.53-.17a2,2,0,0,1,.24.35C118.34,87.38,118,87.92,117.23,87.3Z" transform="translate(-61.61 -73.9)"/><path class="cls-4" d="M105.29,86.71c-.92.13-2.66-.08-3.73.05-.34.22-.44-.14-.74-.09l-.62-.15h-.14a2.16,2.16,0,0,1-1.4-.11l.66-.2a.53.53,0,0,1,0-.13c.37,0,.76.06,1.13.1l.64,0,4.32.16.41-.11.87,0c1.18.27,2.84.07,3.8.37,1.79-.11,3.06.38,5.2.48-3.2.24-5.3-.45-8.51-.22-.27-.05-.76.2-.77-.09Z" transform="translate(-61.61 -73.9)"/><path class="cls-4" d="M98.16,86.39c-.24,0-.07.25-.78.12C98.09,86.64,97.92,86.37,98.16,86.39Z" transform="translate(-61.61 -73.9)"/><path class="cls-4" d="M96.24,86.42l.87.08Z" transform="translate(-61.61 -73.9)"/><path class="cls-4" d="M80.22,85.59a22.8,22.8,0,0,0-3.37.66c-.95.14-2,.11-2.95.28a4,4,0,0,1-1.26-.17l-1.78,0c.16-.33.59-.44,1.18-.54l.91,0a3.06,3.06,0,0,0,1.79-.1c.21,0,.6.15.78-.12.42.08.89.15,1.16-.18h.13c.34,0,.66.06,1,.1a1.07,1.07,0,0,1,.27-.07C78.8,85.45,79.51,85.51,80.22,85.59Z" transform="translate(-61.61 -73.9)"/><path class="cls-4" d="M76.86,79.74h-.14c0-.16,0-.31,0-.47h.64c.23.07.41.14.62.22Z" transform="translate(-61.61 -73.9)"/><path class="cls-4" d="M70.35,86.38c-.24,0-.07.24-.78.11a.53.53,0,0,1,0-.13Z" transform="translate(-61.61 -73.9)"/><path class="cls-9" d="M138.28,87.5c-.05.27-.08.63-1.1.79-.17,0-.36.08-.52.13a3,3,0,0,0-.22-.28c-.12-.17-.23-.34-.35-.5l.64,0A6.1,6.1,0,0,1,138.28,87.5Z" transform="translate(-61.61 -73.9)"/><path class="cls-9" d="M135.85,87.64c-.49.06-1,.12-1.43.16-.19-.19-.6-.13-1,0a.49.49,0,0,1-.11.07l-.14.07c-.34,0-.69-.1-1-.17H132c-.64-.39-.58-.09-.77-.08l-.77,0-1.53-.11h-.5l-.24-.08c-.16-.31-.75-.24-1-.17l-1.27,0a1.43,1.43,0,0,0-1-.16h-.27l-.77,0-.62-.23a3.89,3.89,0,0,0,.42-.19l1.51,0,.77,0,.76.16c.6.1.67-.08.9,0l.52-.13.62.23a18.22,18.22,0,0,1,3,.21l.77,0c.43,0,.85,0,1.28,0,.15.11.33.2.48.3C134.82,87.45,135.5,87.29,135.85,87.64Z" transform="translate(-61.61 -73.9)"/><path class="cls-9" d="M127.81,82.72c-.22.31-.71.14-1.06.17l-.36-.15s-.07-.09-.12-.13,0-.38,0-.57l.13-.05C126.91,82.22,127.35,82.48,127.81,82.72Z" transform="translate(-61.61 -73.9)"/><path class="cls-9" d="M123.84,82.75l-.5,0a2.7,2.7,0,0,1-.39-.08c0-.19,0-.36,0-.55.13,0,.27,0,.4-.06.14.22.31.43.46.63Z" transform="translate(-61.61 -73.9)"/><path class="cls-7" d="M141.41,86.54l-.27.12-.74-.09c0,.19,0,.37.06.56-.45,0-1,.22-1.39,0-.27,0-.54.12-.78.18s-.33-.2-.48-.29l-1.41,0a16.87,16.87,0,0,1-2.56.06c-.43,0-.85,0-1.28,0l-.77,0a18.22,18.22,0,0,0-3-.21l-.62-.23c-.44-.47-.8-.25-1.12-.23a4.85,4.85,0,0,0-.53-.08c-.64-.35-.94-.23-1,0h-.26c-.51,0-1,0-1.52,0l-.25-.16c.18-.27.1-.3,0-.34a.69.69,0,0,0-.66.26,6.47,6.47,0,0,1-2.28,0c-.3,0-.61-.06-.9-.1s-.62.15-.79.2-.42-.07-.63-.09c-.48,0-.53-.3-1.12-.3-.39-.11-.33.19-.52.19-.34,0-.68-.06-1-.1l-.76-.15c-.32,0-.18.29-.53.26l-1,0-.88,0-.52-.15c0-.06,0-.13,0-.21-.68-.17-.75.07-1,.05h-.14a1.27,1.27,0,0,0-1.4,0l-.75,0c-.42-.14-1,0-1.26-.25h-.64l-.52-.15-1,0-.78.11-.76-.15-.65.11-.88,0-.49-.14c.09-.14.18-.29.27-.41h.64c.17.19.49.13,1.12.23l.54-.11.75,0a1.91,1.91,0,0,1,.25.13l.52-.11.49.14c.28-.12.56,0,.92-.18l.91,0c0-.09.09-.18.13-.27s-.07-.19-.09-.28l.75-.05a.58.58,0,0,1,.75.22A4.56,4.56,0,0,0,111,84.3l.26.07.1.06,1.17,0,.22.2.64,0h.5a1.46,1.46,0,0,0,.28-.13,1.34,1.34,0,0,0,.26.08c.07.08.14.19.22.28l.52-.27c.18.1.33.2.51.29l1.51,0,.52-.12c.18,0,.34.06.52.09V85l.74.09.4-.12a4.85,4.85,0,0,1,.49.29l1.78,0c.27-.11.59-.19.76,0,.35,0,.66.06,1,.1.69-.07,1.1.17,1.8.1.23,0,.5.07.73.09a.87.87,0,0,0,.63.16l.79-.25c.15.09.33.18.48.29l1,0,.65-.2.36.23.63.09c0,.16.31.14.62.14l.92-.17.87.09c.35-.06.5.11.76.22l.92-.25.23.08c.7.23.78,0,1,0H136c0,.09.07.17.09.28l.75.15c.15-.54.68-.15,1.06-.25.54.63,1.41,0,2.42.06,0-.07,0-.13,0-.2.37,0,.77.06,1.14.1C141.43,86.3,141.42,86.41,141.41,86.54Z" transform="translate(-61.61 -73.9)"/><path class="cls-10" d="M127.61,86.8c-.23,0-.3.15-.9,0l-.76-.16-.77,0-1.51,0a3.89,3.89,0,0,1-.42.19l-1.91,0-.86-.15h-.14l-.5,0c-.47-.12-.7-.17-.89-.24a.49.49,0,0,1-.14.15c-.58-.05-1.16-.08-1.77-.12l-.48-.36c.19,0,.13-.3.52-.19.59,0,.64.31,1.12.3.21,0,.42.06.63.09s.42-.29.79-.2.6.08.9.1a6.47,6.47,0,0,0,2.28,0,.69.69,0,0,1,.66-.26c.08,0,.16.07,0,.34l.25.16c.51,0,1,0,1.52,0h.26c.07-.2.37-.32,1,0a4.85,4.85,0,0,1,.53.08c.32,0,.68-.24,1.12.23Z" transform="translate(-61.61 -73.9)"/><path class="cls-9" d="M121.34,86.77l-.86-.15Z" transform="translate(-61.61 -73.9)"/><path class="cls-9" d="M119.84,86.6c-.22.07-.11.36-.79.26a2,2,0,0,0-.24-.35.49.49,0,0,0,.14-.15C119.14,86.43,119.37,86.48,119.84,86.6Z" transform="translate(-61.61 -73.9)"/><path class="cls-9" d="M120,82.45c-.4,0-.54.39-1,.25-.18-.1-.33-.2-.51-.29a2,2,0,0,0-.37-.08c-.17.09-.5.26-1.41,0,.32,0,.47-.25.81-.47l.63,0c.22,0,.36-.12.92-.18a5.45,5.45,0,0,0,.33.56C119.62,82.34,119.83,82.38,120,82.45Z" transform="translate(-61.61 -73.9)"/><path class="cls-9" d="M117,86.39c-.16,0-.35,0-.51.06a2,2,0,0,0-.12-.21c.06-.07.09-.14.15-.21Z" transform="translate(-61.61 -73.9)"/><path class="cls-10" d="M116.25,81.93a3,3,0,0,1-1.15.12v0h-.26l-.54.33c-.41-.13-1.09,0-1.38-.31-.32,0-.47.25-1.16.19-.07-.13.17-.17.16-.35l.64,0c0-.19,0-.37,0-.56l1.29-.1c.42,0,.84.07,1.27.09l2.12.4C116.92,81.86,116.6,81.9,116.25,81.93Z" transform="translate(-61.61 -73.9)"/><path class="cls-9" d="M116.21,82.35l-1.12-.25v0a3,3,0,0,0,1.15-.12C116.24,82.07,116.23,82.2,116.21,82.35Z" transform="translate(-61.61 -73.9)"/><path class="cls-9" d="M113.24,86c-.24,0,0,.3-.89.12-.29,0-.44.19-.78.11-.59.1-.67-.22-1.37-.46l.51-.11h.14c.56.29.68.09,1,.16l.52.15Z" transform="translate(-61.61 -73.9)"/><path class="cls-9" d="M106.37,85.77h-.26l-1.77-.17-1.41,0-.87,0a2.72,2.72,0,0,1-.64,0l-.43.33a1.82,1.82,0,0,1,.11.3l-.64,0c-.37,0-.76-.08-1.13-.1,0-.07-.07-.15-.12-.22H99c-.61,0-1.2,0-1.81,0,.21-.27.37-.27.81-.46l.76.15a2.75,2.75,0,0,1,.17-.41l.77,0,1.51,0h.4l.49.14.88,0,.65-.11.76.15.78-.11,1,0,.52.15A3.07,3.07,0,0,0,106.37,85.77Z" transform="translate(-61.61 -73.9)"/><path class="cls-9" d="M103.43,82.57c-.4,0-.24.41-.79.33l-.63-.15c.28-.18.53-.36.82-.54Z" transform="translate(-61.61 -73.9)"/><path class="cls-10" d="M98.73,85.57,98,85.42c-.23.26-1.07.1-.81.46l-1.27,0-.51,0c-.14-.12-.32-.24-.47-.36a3.07,3.07,0,0,1-.29.34l-2.15,0c-.13-.08-.26-.14-.39-.21-.29.06-11.25-.58-11.55-.52s-.69-.06-1-.1c.2-.19.38-.39.58-.6.35,0,11.33.71,11.67.72l.36.22c.65-.15.89-.25,1.19-.31l1,.08c.21,0,.42.07.64.09h.63a2.43,2.43,0,0,1,.36.16l.42-.21,1.64,0c.06,0,.09,0,.14,0l.77.08A2.75,2.75,0,0,0,98.73,85.57Z" transform="translate(-61.61 -73.9)"/><path class="cls-9" d="M95.13,86l-.51-.16a3.07,3.07,0,0,0,.29-.34c.15.12.33.24.47.36Z" transform="translate(-61.61 -73.9)"/><path class="cls-9" d="M78.08,85.39a1.07,1.07,0,0,0-.27.07c-.34,0-.66-.08-1-.1h-.13c0-.07,0-.14,0-.27l.65-.13.77,0C78.11,85.12,78.09,85.25,78.08,85.39Z" transform="translate(-61.61 -73.9)"/><path class="cls-9" d="M78.38,79.92l-1.16.24-.39-.08,0-.34L78,79.49l.39.08Z" transform="translate(-61.61 -73.9)"/><path class="cls-9" d="M73,85.75l-.91,0-.47-.36a1,1,0,0,1-.93.33c-.15-.12-.47-.2-.48-.36v-.06l1-.12h.4c.3,0,.59-.07.89-.12s.52.12.76.16C73.13,85.42,73,85.58,73,85.75Z" transform="translate(-61.61 -73.9)"/><path class="cls-9" d="M67.43,82.89c.18.45-.44.61-.34,1A.58.58,0,0,1,67,84h-.14a4.84,4.84,0,0,0-.49-.14c-1.17-.06-.57-.55-.69-1,.25-.1.44-.22.66-.33l.37.36.64,0Z" transform="translate(-61.61 -73.9)"/><path class="cls-9" d="M66.5,81.55l-.62-.22c.07-.15-.08-.37.54-.47C66.72,81.2,67,81.52,66.5,81.55Z" transform="translate(-61.61 -73.9)"/><path class="cls-7" d="M108.55,82.43c-.37,0-.78.06-1.15.11l-.91,0c0-.21,0-.41.05-.62l.77,0a1.14,1.14,0,0,0,.12.14l1.13.16A1.24,1.24,0,0,0,108.55,82.43Z" transform="translate(-61.61 -73.9)"/><path class="cls-7" d="M108.21,83.39c-.35,0-.74-.08-.75,0l-.65.13c-.62-.15-.87,0-.78.11l-.27.06h-.5a1.57,1.57,0,0,0-1.4-.18l.47-.88h.37l1.65,0,1.88.39C108.22,83.2,108.22,83.3,108.21,83.39Z" transform="translate(-61.61 -73.9)"/><path class="cls-7" d="M102.83,82.14l-1.41,0a2.7,2.7,0,0,0-.09-.48l.64-.06c.28.17.59.34.87.52C102.83,82.09,102.83,82.12,102.83,82.14Z" transform="translate(-61.61 -73.9)"/><path class="cls-7" d="M101.18,85.16l-1.51,0c0-.1.09-.19.13-.29.4,0,.84.08,1-.17h.37C101.21,84.83,101.2,85,101.18,85.16Z" transform="translate(-61.61 -73.9)"/><path class="cls-10" d="M101.42,82.1l-.9.32a4.3,4.3,0,0,0-3,.14c0,.08,0,.13,0,.21l-1.4,0a2.28,2.28,0,0,1,0-.27c-.08-.09-.15-.2-.22-.28l.4-.34c-.23-.06-.5-.11-.76-.16,0-.21,0-.42,0-.62l-.76.18-.9-.08c.15-.17.3-.33.41-.48l.65-.06c.23.12.4.24.61.36l.53,0,.84.44c0,.07,0,.14,0,.2a7.17,7.17,0,0,0,2.05,0c0-.06,0-.13,0-.2a2.43,2.43,0,0,1,1.27.11l1,0A2.7,2.7,0,0,1,101.42,82.1Z" transform="translate(-61.61 -73.9)"/><path class="cls-7" d="M99,81.69a7.17,7.17,0,0,1-2.05,0c0-.06,0-.13,0-.2l2,0C99.05,81.56,99,81.63,99,81.69Z" transform="translate(-61.61 -73.9)"/><path class="cls-7" d="M99,82.73q-.14.28-.66.33l-.49-.22.49.22Q98.82,83,99,82.73Z" transform="translate(-61.61 -73.9)"/><path class="cls-7" d="M96.14,82.73l-.75,0c-.07-.17-.24-.34.15-.61h.4c.07.08.14.19.22.28A2.28,2.28,0,0,0,96.14,82.73Z" transform="translate(-61.61 -73.9)"/><path class="cls-11" d="M94.33,84.69a1,1,0,0,0-1,0l-1.16,0-11.4-.77-.68.46-.52-.15-1.65,0a7.17,7.17,0,0,0-1.13-.09l-.62-.23c-.4,0-.48-.42-1.38-.45a2.65,2.65,0,0,0-1,.26c0,.33-.29.35-.92.25l-.28.12a1.68,1.68,0,0,1-.16.63l-1-.24-.89.12a2.78,2.78,0,0,1-.24-.28l-.76-.16.43-.41.9-.32c.21-.29.87-.54.47-.89l.28-.48a2.59,2.59,0,0,1-.34-.49H71c-.12-.19-.21-.38-.33-.58l.66-.25.26-.27.55-.26,1-.05a1.46,1.46,0,0,1,.28-.13l.24-.13.61.42.13.08c.29-.07.62-.12.91-.18.51,0,1-.08,1.53-.11l.39.08.72.3a.67.67,0,0,1-.65.2l-.53.26c.43.59,1.22.09,2,.18.27.07.5.11.76.16s.5.1.76.17,11.23.92,11.51,1.06h.27c.22.13,0,.29.34.41l.92-.25c.14.21.35.24,1,.1.27,0,.5,0,.77.09,0,.2,0,.42-.05.62a3.38,3.38,0,0,0-.38.06l-1.91,0c-.22.14-.69,0-.92.18,1.35.09,1.59.75,2.88.57l.52.21Z" transform="translate(-61.61 -73.9)"/><path class="cls-7" d="M95.58,81.68c-.35.06-.52-.1-.71-.44l.76-.18C95.61,81.26,95.6,81.47,95.58,81.68Z" transform="translate(-61.61 -73.9)"/><path class="cls-7" d="M94,81.16H93.6l-.78.11c-.45.06-.14.5-.79.32-.45-.12-11.83-.78-11.77-1.14l-.49-.28c.64,0,12,.64,12.59.61.16-.1.36-.18.52-.28l.51,0,1,.17C94.27,80.83,94.12,81,94,81.16Z" transform="translate(-61.61 -73.9)"/><path class="cls-7" d="M93.3,85c-.3.06-.54.16-1.19.31l-.36-.22a5.29,5.29,0,0,0,.41-.41l1.16,0C93.32,84.77,93.31,84.85,93.3,85Z" transform="translate(-61.61 -73.9)"/><path class="cls-7" d="M80.08,84.33c-.2.21-.38.41-.58.6-.45,0-.93,0-1.38,0l-.77,0c0-.11,0-.23,0-.34.17-.13.37-.27.54-.41l1.65,0Z" transform="translate(-61.61 -73.9)"/><path class="cls-7" d="M74.39,80.37l-.13-.08L73.41,80l.24-.13.78-.05.26.08A3.38,3.38,0,0,0,74.39,80.37Z" transform="translate(-61.61 -73.9)"/><path class="cls-7" d="M73.86,85.28l-.63,0c-.24,0-.5-.09-.76-.16,0-.09,0-.19,0-.27.4,0,.57-.19.91-.11s.09.28.48.36C73.87,85.14,73.87,85.21,73.86,85.28Z" transform="translate(-61.61 -73.9)"/><path class="cls-8" d="M71.56,80.44l-.26.27-.66.25c.12.2.21.39.33.58h.26a2.59,2.59,0,0,0,.34.49l-.28.48c.4.35-.26.6-.47.89l-.9.32c-.1-.36-.31-.43-.22-.55A1,1,0,0,1,70,83.1c.94-.12.61-.39,1-.52l-.88-.24a3.1,3.1,0,0,0-.36-.21c0-.07,0-.15,0-.22l1-.32-1,0a2.77,2.77,0,0,0-.09-.47L69,80.85l-1.38,0a1.29,1.29,0,0,1-.25-.2c.35-.46,1.09-.35,2.07-.3l.64,0c.23.09.49.2.75.29l.26-.27a.71.71,0,0,0-.12-.2c.4,0,.77.06,1.16.1Z" transform="translate(-61.61 -73.9)"/><path class="cls-7" d="M70,83.1a1,1,0,0,0-.27.07l-.64,0c.07-.22.11-.42.18-.62.28-.12.14-.38.54-.4a3.1,3.1,0,0,1,.36.21l.88.24C70.58,82.71,70.91,83,70,83.1Z" transform="translate(-61.61 -73.9)"/><path class="cls-7" d="M70.81,80.55c-.26-.09-.52-.2-.75-.29l.89-.18a.71.71,0,0,1,.12.2Z" transform="translate(-61.61 -73.9)"/><path class="cls-7" d="M70.83,81.59l-1,.32-.25-.21c-.75-.31-1,.19-1.53.11-.09.11-.17.21-.29.34l-1.28,0a2.64,2.64,0,0,0,.17-.47l1-.19c0-.23,0-.46-.05-.7l1.38,0,.75.24a2.77,2.77,0,0,1,.09.47Z" transform="translate(-61.61 -73.9)"/><path class="cls-7" d="M68.24,85.41a1.79,1.79,0,0,0,.25.22v.06l-1.18.12-.63-.16-.1-.06c.1-.26.2-.52.3-.76l.5.08c.49-.11,1-.2,1.43-.31C68.63,84.87,68.42,85.14,68.24,85.41Z" transform="translate(-61.61 -73.9)"/><path class="cls-10" d="M69.92,83.72l-.43.41c-.14,0-.24,0-.38.06a1.79,1.79,0,0,0-.14.13,2,2,0,0,1-.16.28c-.46.11-.94.2-1.43.31l-.5-.08a7.71,7.71,0,0,0-.07-.84H67a.58.58,0,0,0,.14-.13c-.1-.36.52-.52.34-1H67.3l-.64,0-.37-.36a1.5,1.5,0,0,0,.16-.34l1.28,0c.12-.13.2-.23.29-.34.58.08.78-.42,1.53-.11l.25.21c0,.07,0,.15,0,.22-.4,0-.26.28-.54.4-.07.2-.11.4-.18.62l.64,0C69.61,83.29,69.82,83.36,69.92,83.72Z" transform="translate(-61.61 -73.9)"/><path class="cls-7" d="M67.85,82.28c.16.37.07.52-.42.61H67.3l0-.41C67.5,82.42,67.64,82.27,67.85,82.28Z" transform="translate(-61.61 -73.9)"/><path class="cls-10" d="M138.28,87.5l-1.55.09-.64,0h-.24c-.35-.35-1-.19-1.53-.25-.15-.1-.33-.19-.48-.3A16.87,16.87,0,0,0,136.4,87l1.41,0c.15.09.3.2.48.29A.66.66,0,0,0,138.28,87.5Z" transform="translate(-61.61 -73.9)"/><path class="cls-10" d="M133.67,84.26l-1,0c0-.1,0-.19,0-.29s-.25-.24-.34-.35l.11-.06c0,.12.42,0,1,.23l.23.08Z" transform="translate(-61.61 -73.9)"/><path class="cls-10" d="M132.56,87.13l-.77,0Z" transform="translate(-61.61 -73.9)"/><path class="cls-10" d="M126.67,84l-.74-.09a2,2,0,0,1-.24-.28,1.31,1.31,0,0,1,.16-.34c.28-.24.74,0,.9-.4.35,0,.84.14,1.06-.17.07,0,.15,0,.23.06a2.1,2.1,0,0,1,.24.3c-.24.42.66.46.71.84-.17.07-.28.18-.52.13Z" transform="translate(-61.61 -73.9)"/><path class="cls-10" d="M124.35,82.69l-.5,0c-.15-.2-.32-.41-.46-.63A1.83,1.83,0,0,1,124,82l.49.23C124.46,82.37,124.42,82.53,124.35,82.69Z" transform="translate(-61.61 -73.9)"/><path class="cls-10" d="M122.19,82.78c-.31-.1-.41.15-.65.12l-.74-.3-.76-.15c-.21-.07-.42-.11-.63-.16a5.45,5.45,0,0,1-.33-.56,1.86,1.86,0,0,1,1.64.11l1.54.1.73.16c0,.19,0,.36,0,.55a2.7,2.7,0,0,0,.39.08c-.51,0-.09.43-.67.33C122.49,83,122.34,82.87,122.19,82.78Z" transform="translate(-61.61 -73.9)"/><path class="cls-10" d="M111.05,83c0-.06-.06-.13-.11-.2l-1.27-.11a.6.6,0,0,1-.14.07l-1-.37a1.24,1.24,0,0,1,0-.15,3.79,3.79,0,0,1,.29-.26l.88,0,.9,0,.61.29c0,.1,0,.19,0,.29a1.83,1.83,0,0,1,1.12.23c0,.12,0,.23,0,.35C111.9,83.16,111.47,83.11,111.05,83Z" transform="translate(-61.61 -73.9)"/><path class="cls-10" d="M111.84,85.84l-1.13-.16h.14c.26,0,.33-.22,1-.05C111.85,85.71,111.85,85.78,111.84,85.84Z" transform="translate(-61.61 -73.9)"/><path class="cls-10" d="M106.49,82.58a.62.62,0,0,1-.14.14l-1.65,0h-.37l-.9-.1-.6-.36v-.07s0,0,0-.06l.79-.33,1,.23a1,1,0,0,1,.13.15l1.66-.25.13.08C106.52,82.17,106.51,82.37,106.49,82.58Z" transform="translate(-61.61 -73.9)"/><path class="cls-10" d="M77.94,80.46l-.72-.3,1.16-.24a.8.8,0,0,0,.13.13C78.21,80.09,78.3,80.35,77.94,80.46Z" transform="translate(-61.61 -73.9)"/><path class="cls-10" d="M76.83,80.08c-.51,0-1,.06-1.53.11-.17-.11-.33-.2-.5-.29l1.92-.17h.14Z" transform="translate(-61.61 -73.9)"/><path class="cls-10" d="M75.28,85.25l-.51,0-.91,0c0-.07,0-.14,0-.2.47.1.31-.21.66-.27l.88.24Z" transform="translate(-61.61 -73.9)"/><path class="cls-10" d="M67.65,81.51l-1,.19a.42.42,0,0,0-.12-.15c.48,0,.22-.35-.08-.69.33-.08.63-.18.93-.25a1.29,1.29,0,0,0,.25.2C67.61,81.05,67.64,81.28,67.65,81.51Z" transform="translate(-61.61 -73.9)"/><path class="cls-8" d="M140.29,86.29c-1,0-1.88.57-2.42-.06-.38.1-.91-.29-1.06.25a.32.32,0,0,1-.13.06l-.62-.21c0-.11-.07-.19-.09-.28h-.13c-.26,0-.34.2-1,0l-.23-.08-.92.25c-.26-.11-.41-.28-.76-.22l-.87-.09-.92.17c-.31,0-.66,0-.62-.14l-.63-.09-.36-.23-.65.2-1,0c-.15-.11-.33-.2-.48-.29l-.79.25a.87.87,0,0,1-.63-.16c-.23,0-.5,0-.73-.09-.7.07-1.11-.17-1.8-.1-.35,0-.66-.08-1-.1-.17-.21-.49-.13-.76,0l-1.78,0a4.85,4.85,0,0,0-.49-.29c.41-.4,1.11-.2,1.67-.25.27,0,.51,0,.78,0l.89.09c.39.12.5-.19,1-.11a.76.76,0,0,0,0-.14c.32,0,.6-.48,1,.1-.22,0-.43.07-.65.12.33.14.67.3,1,.43l1.29-.09-.36-.5.27-.07q.31.06.63.09c.47,0,.92.11,1.39.18a.8.8,0,0,0,.13.13l.87,0a.49.49,0,0,0,0-.12,2.46,2.46,0,0,1,1.27.1,6.36,6.36,0,0,0,1.71-.38l.72.3a1.13,1.13,0,0,0,.37.28l.64,0a1.5,1.5,0,0,1,.23.15l.9,0,1.24.45a15.5,15.5,0,0,0,2,0c.35.26,1.21.11,1.88.4C140.3,86.16,140.29,86.22,140.29,86.29Z" transform="translate(-61.61 -73.9)"/><path class="cls-11" d="M123.69,84.62c-.52-.08-.63.23-1,.11l-.89-.09c-.27,0-.51,0-.78,0-.56,0-1.26-.15-1.67.25l-.4.12-.74-.09V84.9c-.18,0-.34-.07-.52-.09s-.32-.28-.47-.43c-.61.26-1.48.24-1.52,0-.19.07-.35.14-.54.19s-.51,0-.75.06a1.34,1.34,0,0,1-.26-.08,2.5,2.5,0,0,0-.24-.36.53.53,0,0,0,0-.13c-.07-.14-.14-.27-.2-.42l.64-.06,1,.17c.17.12.5.06.76.1L117,84l.23.08h.51l.91,0a2.26,2.26,0,0,1,.28-.19c.3.23,1.19,0,1.11.44l.87,0,.9.08a8.26,8.26,0,0,0,1.9.12A.76.76,0,0,1,123.69,84.62Z" transform="translate(-61.61 -73.9)"/><path class="cls-8" d="M117.15,84.93l-1.51,0c-.18-.09-.33-.19-.51-.29a3.31,3.31,0,0,1-.26.27h-.26c-.08-.09-.15-.2-.22-.28.24,0,.51,0,.75-.06s.35-.12.54-.19c0,.28.91.3,1.52,0,.15.15.32.29.47.43Z" transform="translate(-61.61 -73.9)"/><path class="cls-8" d="M91.75,85.05c-.34,0-11.32-.71-11.67-.72l-.52-.15c.32-.35.84-.19,1.2-.31l11.4.77A5.29,5.29,0,0,1,91.75,85.05Z" transform="translate(-61.61 -73.9)"/><path class="cls-8" d="M74.39,80.37l-.13-.08.43-.39h.11c.17.09.33.18.5.29C75,80.25,74.68,80.3,74.39,80.37Z" transform="translate(-61.61 -73.9)"/><path class="cls-11" d="M132,85.8c-.21,0-.42-.09-.63-.16-.58,0-.92-.06-1-.37a.58.58,0,0,0,.14-.13c.71.11,1.42.23,2.15.33Z" transform="translate(-61.61 -73.9)"/><path class="cls-11" d="M125.06,85.13c-.33-.13-.67-.29-1-.43.22,0,.43-.09.65-.12l1,0H126l.36.5Z" transform="translate(-61.61 -73.9)"/><path class="cls-11" d="M106.79,83.84a.31.31,0,0,0-.14.07l-.62-.23c-.09-.13.16-.26.78-.11C106.81,83.65,106.8,83.74,106.79,83.84Z" transform="translate(-61.61 -73.9)"/><path class="cls-11" d="M96.38,84.69,96,84.53c.22-.34.78-.08,1.06-.24.07.08.14.19.22.28C97,84.6,96.68,84.64,96.38,84.69Z" transform="translate(-61.61 -73.9)"/><path class="cls-6" d="M132,87.74l-.77,0v-.06C131.43,87.65,131.37,87.35,132,87.74Z" transform="translate(-61.61 -73.9)"/><path class="cls-6" d="M132.11,87.74h0Z" transform="translate(-61.61 -73.9)"/><path class="cls-4" d="M96.24,86.42c-.47.26-1.38,0-1.79.15-.12.13-.35,0-.89-.16a6.8,6.8,0,0,1-1.8.17c-.2-.11-10.72-1-11.13-1,.35,0,11.33.61,11.68.57s.84.11,1.26.18,1-.08,1.55-.11l.74,0Z" transform="translate(-61.61 -73.9)"/><path class="cls-10" d="M116.56,86c-.06.07-.09.14-.15.21l-.87,0a4.64,4.64,0,0,1-1.27-.18c.35,0,.21-.21.53-.26l.76.15C115.88,86,116.22,86,116.56,86Z" transform="translate(-61.61 -73.9)"/><path class="cls-10" d="M112.59,81.42a.28.28,0,0,1-.12-.08A.28.28,0,0,0,112.59,81.42Z" transform="translate(-61.61 -73.9)"/><path class="cls-10" d="M110.71,85.68l-.51.11-.89-.15A1.27,1.27,0,0,1,110.71,85.68Z" transform="translate(-61.61 -73.9)"/></g></g><path class="cls-1" d="M144.14,81.56A589.64,589.64,0,0,0,61.78,83" transform="translate(-61.61 -73.9)"/><g class="cls-3"><g class="cls-3"><path class="cls-4" d="M112.87,84.18c.34,0,.71.1,1.08.16l0,.35c.08.09.25.06.39.07s.14-.27.18-.4l.57-.28c.7-.07,12.89.76,13.58.78L130,85a.83.83,0,0,1,.13.14l0,.34c-1.07-.26-1.3.28-2,.32a65.72,65.72,0,0,0-7.23-.46c-3.29-.12-6.6-.17-7.31-.31-.31-.07-.62-.12-.93-.16-.18-.21-.34-.43-.49-.63Z" transform="translate(-61.61 -73.9)"/><path class="cls-5" d="M114.49,84.36c0,.13.09.32-.18.4s-.31,0-.39-.07l0-.35Z" transform="translate(-61.61 -73.9)"/><path class="cls-4" d="M143.1,79.32c.81-.14.74.37,0,.63l-.1-.07Z" transform="translate(-61.61 -73.9)"/><path class="cls-5" d="M143,79.88c.26-.24,0-.58.47-.46C143.47,79.58,143.51,79.76,143,79.88Z" transform="translate(-61.61 -73.9)"/><path class="cls-6" d="M66.62,78.38l1.39-.2,1.54-.65a4.91,4.91,0,0,0,.41.33c-.24.37.37.4.54.73l1.13-.2v.29a3.41,3.41,0,0,1-1.39.07c-.47.14-.9.24-1.13.06l-1.54.29h-.26l-.43-.47A2.13,2.13,0,0,1,66.62,78.38Z" transform="translate(-61.61 -73.9)"/><path class="cls-4" d="M69.55,77.53a5.48,5.48,0,0,0,.56-.1,9,9,0,0,1,1.65.13c2.87,0,5.85.34,8.93,0a46.12,46.12,0,0,1,5,.47l-1.25.17a13.36,13.36,0,0,0-4,.27c-1.94,0-2.92-.41-4.72.11l-.56,0c-.69-.26-1.12-.48-1.67-.27v.27l-.84,0v-.06l-.84,0h-.11v-.29l-1.13.2c-.17-.33-.78-.36-.54-.73A4.91,4.91,0,0,1,69.55,77.53Z" transform="translate(-61.61 -73.9)"/><path class="cls-6" d="M73.43,78.38c.55-.21,1,0,1.67.27H73.43Z" transform="translate(-61.61 -73.9)"/><path class="cls-6" d="M75.66,78.63c1.8-.52,2.78-.08,4.72-.11a13.36,13.36,0,0,1,4-.27l1.25-.17H86a3,3,0,0,0,.28.34c.56-.29,1.28-.08,1.66-.25l1.68.11c2.34,0,3.74.44,5.69.27,1,.26,2.86,0,4.15.24h1l.44-.13,4.72.08a1.19,1.19,0,0,0,.12.29l-.46.34a3.21,3.21,0,0,0-.7,0H102l-1.93-.13-.6.35h-.7c-.24-.26-.92-.09-1.37-.21l-.81.08-1-.12c-.77-.21-.87-.53-1.51-.4-.38-.07-.53.12-.85.13-1-.15-.7.1-1,.16l-1.13,0a5.37,5.37,0,0,0-1.38-.12l-1,0c0-.06-.08-.13-.13-.2l-.56.08-1.93,0a3.84,3.84,0,0,1-.28-.34c-.75-.07-.62.22-.85.29l-.55,0h-.14l-1-.1L81.35,79l-.69-.19-.84,0-1.39-.08-1.39,0c-.37,0-.75-.07-1.13-.09Z" transform="translate(-61.61 -73.9)"/><path class="cls-6" d="M78.17,84a1.47,1.47,0,0,0,.14-.06c.78-.19,1.38-.14,1.93-.29l.54.2a2,2,0,0,0,.69-.1l.43-.08c.26,0,.55.06.8.11l-.27.63c-.43,0-.84.08-1.24.12s-.83,0-1.26,0c-.23,0-.35.15-.55.23-.52.1-.77-.09-1.22-.44V84Z" transform="translate(-61.61 -73.9)"/><path class="cls-7" d="M71.3,82.23a3.21,3.21,0,0,0,.4-.3,6.84,6.84,0,0,1,1.83-.5,3,3,0,0,0,1.38,0v-.13l1,0a.67.67,0,0,1,.15.13l1.52.08c.23,0,.46,0,.69,0a2,2,0,0,1,.29-.08h.26l1.13-.11c.47.55.75,0,1.09,0a8.9,8.9,0,0,1,2.08,0l1,0,1,0c-.08.44.88.17,1.22.39l.43.13.84,0c.23-.08.32-.3.7-.23a2.57,2.57,0,0,0,.39.34,2.93,2.93,0,0,1,.83.06h.26l.44-.21.82.26.26-.08L93,82h.41l0,.35a2.14,2.14,0,0,0,1.23.19l0,.29-.55.06c-.74,0-.9.21-1.24.23h-.15l-.53-.21c-.63-.09-.93.21-1.4.32h-.28l-1.23-.19h-.55c-1-.19-1.35,0-1.52.1a2.12,2.12,0,0,1-.4-.06l-.57-.26c-.54-.11-.67.28-1.1.31l-.83-.11-.83-.27c-.25,0-.35.24-.69.17a5.44,5.44,0,0,0-.54-.26c-.63-.07-.15.29-.7.37l-.55,0v.07l-.54,0-.16.48c-.55.15-1.15.1-1.93.29v-.56a.86.86,0,0,0-.14-.13l-.4-.13c.15-.38.67-.2,1-.45a1.84,1.84,0,0,0,.15-.36,1.79,1.79,0,0,0-.28-.26l-.8,0-2,.08a.86.86,0,0,0-.55.17c.08.37,1.06.34.82.79a10.56,10.56,0,0,0-2.36-.1l-1.64-.13-.43,0a2.67,2.67,0,0,0-.4-.32Z" transform="translate(-61.61 -73.9)"/><path class="cls-8" d="M86.52,81.53l1-.1h.55l.25.07,1,.11c.29,0,.64-.06.83.06l1.09.12.7-.08-.24-.42v-.13a2.68,2.68,0,0,1-.27-.34,1.32,1.32,0,0,1,.29-.15h1.25a2.43,2.43,0,0,0,.25.2l1.27-.07.11,0a2.38,2.38,0,0,0,.29.07,5.07,5.07,0,0,1,1.54-.21.66.66,0,0,0,.82.19c.26,0,.55-.05.81-.08,0-.08-.07-.17-.1-.27l.14-.28c.34,0,.66,0,1-.07s.7-.07,1-.2l.54.13.55-.13.28.13h.81l.59-.13c.69.09,1,0,1.23.21h.69l.29-.41h.43l0,.49h.4c.22-.26.71-.18,1.14-.19,0-.1.1-.19.14-.29l.84,0,.84.07s.08,0,.14,0l1.8,0,.45-.21a2.89,2.89,0,0,0,.39.15h.69l.69.08,1.09.09,0,.28a1.22,1.22,0,0,1-1.1,0l-1,.26.56.21c1.4-.2,1.66.47,3.13.56-.25.21-.76,0-1,.18l-2.07-.05a2.5,2.5,0,0,1-.41.07l-.05.62c.28,0,.54.07.83.09.7-.15.93-.11,1.08.09l1-.25c.3.13.12.28.36.42h.29c.31.1,12.15,1.06,12.45,1.21l.82.19c.28,0,.53.11.81.18.88.12,1.74-.36,2.19.25l-.57.24a.75.75,0,0,0-.71.18c-.39.1-.3.36-.62.39l-1.37-.14-.51-.3c.07-.39-12.23-1.21-12.71-1.29-.71-.18-.37.26-.86.32l-.85.11h-.4l-1-.07c-.2-.34-.39-.5-.77-.43s-.57-.1-.82-.16l.43-.34h.43c.43-.28.24-.44.16-.61l-.81.06-1.52,0-.28-.08-.54-.21c-.37,0-.61.15-.71.34-.32-.06-.63-.11-1-.15a1.35,1.35,0,0,1-.82.19,5.37,5.37,0,0,1-.56-.21l-1,.2-.68-.14c-.6-.07-.42.32-.86.34l-1-.07.49-.89a1.82,1.82,0,0,1-1.52-.15h-.55l-.29.08-.83-.15v.28c-.24.05-.44.1-.7.14,0,.13-.44,0-.81.07l0,.28-1.39.16-.82-.21-.85.22L93.41,82H93l-1.81,0-.26.08-.82-.26-.44.21h-.26a2.93,2.93,0,0,0-.83-.06,2.57,2.57,0,0,1-.39-.34,5.33,5.33,0,0,1-1.54.25l-.43-.13Z" transform="translate(-61.61 -73.9)"/><path class="cls-6" d="M87.82,83.58c.35-.24.51-.49.85-.51h.55l0,.42-1.1.16Z" transform="translate(-61.61 -73.9)"/><path class="cls-9" d="M93.2,83.27h.69l1.39-.14H97.2l.4.61.85-.27a5.19,5.19,0,0,1,.42-.35h.83l.14.07,1.8-.29c.06.06.08.1.14.15l1.08.2.85-.34c.31.17.64.33,1,.49-.3.15-.6.27-.86.42l-1-.15-1.39.14h-.69l-.41.28a3.29,3.29,0,0,1-.83-.07l-.83-.08-1.09,0-1.37-.06-2.9.1a.31.31,0,0,0-.14-.07Z" transform="translate(-61.61 -73.9)"/><path class="cls-6" d="M94.05,82.91l.55-.06.68.27-1.39.14C93.87,83.09,94.13,83,94.05,82.91Z" transform="translate(-61.61 -73.9)"/><path class="cls-6" d="M94.78,82.15l.85-.22.82.21L97.84,82l2,.34a.53.53,0,0,0-.15.15l-1,.06-1.25.14-1.22-.26-1.37-.06C94.78,82.24,94.78,82.2,94.78,82.15Z" transform="translate(-61.61 -73.9)"/><path class="cls-6" d="M97.51,82.82l1.23.13.13.14a5.19,5.19,0,0,0-.42.35l-.85.27-.4-.61A2.89,2.89,0,0,0,97.51,82.82Z" transform="translate(-61.61 -73.9)"/><path class="cls-6" d="M104.59,82.19l1-.2a5.37,5.37,0,0,0,.56.21,1.35,1.35,0,0,0,.82-.19c.34,0,.65.09,1,.15.1-.19.34-.3.71-.34l.54.21.28.08,0,.2a5,5,0,0,1-3.21.18l-1,.34h-1.52v-.07Z" transform="translate(-61.61 -73.9)"/><path class="cls-6" d="M107.46,78.82v-.13l.71-.21h.55c.26,0,.08-.25.85-.12h.29l.95.08.42.22.81,0,1.69-.12,1.38.18c.38-.07,12.34.73,12.72.72l.44,0,2.32.26,0,.41h-1.51c-.37,0-.75-.09-1.12-.12s-12.24-.77-12.57-.66l-.42-.22-2.34,0-.57-.15-.27.14h-.55l-1.39,0-2,.05h-.26C107.45,79,107.45,78.89,107.46,78.82Z" transform="translate(-61.61 -73.9)"/><path class="cls-8" d="M131.35,80.48l0-.34.71-.11,1.39.07.95.27c.39-.05.22-.36.73-.24s0,.39.51.37.56-.06,1-.06l0-.28c.32,0,.64-.06,1-.08l.43,0,1.11-.07V80l.58-.18a5.87,5.87,0,0,0,1.25,0l.26.23-.66.78a1.47,1.47,0,0,0-.18.28l-.16.12a3,3,0,0,1-.41,0c-.28-.06-.54-.12-.82-.2l-.25-.29c-.33,0-.65.06-1,.08l-1.1-.28a1.72,1.72,0,0,0-.19.63,2.24,2.24,0,0,0-.31.11c-.68-.13-.94-.12-1,.21a3.1,3.1,0,0,1-1.12.22c-1-.07-1-.46-1.48-.5L132,81a8.54,8.54,0,0,1-1.23-.12Z" transform="translate(-61.61 -73.9)"/><path class="cls-6" d="M132.13,79.76c.3-.32.82-.24,1.27-.14.2-.27.63-.16.85-.1a3.77,3.77,0,0,1,2,0l-.32.48-.7,0-1-.06-.55,0-.17.19L132.1,80Z" transform="translate(-61.61 -73.9)"/><path class="cls-6" d="M135.23,85.34c-.29.06,0,.3-.83,0C134.69,85.37,135,85.35,135.23,85.34Z" transform="translate(-61.61 -73.9)"/><path class="cls-6" d="M137.2,79.5c.64-.08,1.12-.17,1.31-.49a5.46,5.46,0,0,0,.56,0l.83.06,0-.13a1.83,1.83,0,0,0,1.16-.14c.5-.05.7.2,1.07.3a5.7,5.7,0,0,0,.2.63l-1.29.06v.06a5.87,5.87,0,0,1-1.25,0l-.58.18-.94-.41c-.51-.06-.09.29-.59.31Z" transform="translate(-61.61 -73.9)"/><path class="cls-4" d="M69.37,82.27c.26,0,.55-.09.83-.12v-.21c.2-.23-.35-.09-.43-.46l.69,0a1.2,1.2,0,0,1,.43.25l.8.23a3.21,3.21,0,0,1-.4.3l-1.1.06v.42l-.84,0c-.28.1-.92.21-1.12,0s.43-.23.44-.43Z" transform="translate(-61.61 -73.9)"/><path class="cls-4" d="M71.69,82.84l.43,0,1.64.13a.42.42,0,0,0,.15-.08l1.52.08c.29,0,.34.21.69.1a2.42,2.42,0,0,0,.28.27A5.47,5.47,0,0,1,74,83.7l-.69-.18c-.2,0-.52.16-.69,0,.32-.38-.52-.07-.69-.25a2.87,2.87,0,0,1-.39-.39Z" transform="translate(-61.61 -73.9)"/><path class="cls-4" d="M78.16,84.29c.45.35.7.54,1.22.44.2-.08.32-.22.55-.23-.23,0-.35.15-.55.23C78.86,84.83,78.61,84.64,78.16,84.29Z" transform="translate(-61.61 -73.9)"/><path class="cls-4" d="M78.16,84.22v0Z" transform="translate(-61.61 -73.9)"/><path class="cls-4" d="M82.43,84.41l.27-.63,1.67,0a2.21,2.21,0,0,0,1.78,0c.6-.09.75-.22,1-.23h.69l.28.06,2.32.31,1.37,0,1.39-.15a.31.31,0,0,1,.14.07l2.9-.1,1.37.06,1.09,0,.83.08a3.29,3.29,0,0,0,.83.07l.41-.28h.69l1.39-.14,1,.15c.26-.15.56-.27.86-.42l.69-.06h1.09a3,3,0,0,0,1.38.08l2.21,0,.91.44a3,3,0,0,1-1.39.18c-.24.11-.45.22-.72.33a2.12,2.12,0,0,0-1.24.2c-.4-.1.07-.62-.66-.49-.25,0-.06.11-.26.14l-1.39,0a1.47,1.47,0,0,1-.55-.21H104l0,.42.82.14a1.35,1.35,0,0,1-.17.34h-.8c-.22-.12-.44-.22-.66-.35-.93.22-2.06-.18-2.52.34a2.3,2.3,0,0,0-2,.49c-5.26,0-10.53.11-15.8.28a2,2,0,0,0-.13-.42c.64-.18.79-.43.71-.71l-.83,0c-.12.14-.27.29-.41.43l-1.08-.44C81.59,84.49,82,84.44,82.43,84.41Z" transform="translate(-61.61 -73.9)"/><path class="cls-4" d="M87.89,78.16c-.38.17-1.1,0-1.66.25a3,3,0,0,1-.28-.34C86.67,78.14,87,77.58,87.89,78.16Z" transform="translate(-61.61 -73.9)"/><path class="cls-4" d="M101,78.31c1-.17,2.89,0,4.06-.13.37-.23.49.13.81.07l.69.14h.14a2.43,2.43,0,0,1,1.53.09l-.71.21v.13l-1.24-.09h-.69l-4.72-.08-.44.13h-1c-1.29-.25-3.1,0-4.15-.24-2,.17-3.35-.28-5.69-.27,3.49-.39,5.81.23,9.3-.11.29,0,.82-.21.84.08C100.14,78.25,100.54,78.28,101,78.31Z" transform="translate(-61.61 -73.9)"/><path class="cls-4" d="M108.73,78.49c.26,0,.08-.25.85-.12C108.81,78.24,109,78.5,108.73,78.49Z" transform="translate(-61.61 -73.9)"/><path class="cls-4" d="M110.82,78.45l-.95-.08Z" transform="translate(-61.61 -73.9)"/><path class="cls-4" d="M128.28,79.42a27.86,27.86,0,0,0,3.7-.57c1-.11,2.18,0,3.22-.17a5.4,5.4,0,0,1,1.37.21l1.94.12c-.19.32-.67.41-1.31.49h-1a3.77,3.77,0,0,0-2,0c-.22-.06-.65-.17-.85.1-.45-.1-1-.18-1.27.14H132l-1.09-.13a2,2,0,0,1-.3.06Z" transform="translate(-61.61 -73.9)"/><path class="cls-4" d="M131.78,85.37h.14l0,.48-.69,0a5.66,5.66,0,0,1-.66-.24Z" transform="translate(-61.61 -73.9)"/><path class="cls-4" d="M139.07,79c.25,0,.08-.24.85-.07l0,.13Z" transform="translate(-61.61 -73.9)"/><path class="cls-9" d="M64.94,79.46c0-.28,0-.64,1.13-.9.17,0,.37-.11.55-.18a2.13,2.13,0,0,0,.26.26l.43.47-.7.11A8.7,8.7,0,0,1,64.94,79.46Z" transform="translate(-61.61 -73.9)"/><path class="cls-9" d="M67.57,79.1l1.54-.29c.23.18.66.08,1.13-.06l.11-.08a.68.68,0,0,0,.15-.08l1.13.09h.11c.72.34.64,0,.85,0l.84,0H75.1l.56,0,.25.06c.2.29.84.18,1.13.09l1.39,0a1.68,1.68,0,0,0,1.1.09h.29l.84,0,.69.19-.44.22-1.65.06-.84,0-.84-.11c-.66-.07-.72.13-1,.11s-.35.12-.56.17l-.69-.19a20.53,20.53,0,0,1-3.32,0l-.84,0-1.39.15-.55-.26C68.7,79.2,68,79.41,67.57,79.1Z" transform="translate(-61.61 -73.9)"/><path class="cls-9" d="M76.66,83.37c.21-.33.75-.19,1.12-.25l.4.13a.86.86,0,0,1,.14.13v.56a1.47,1.47,0,0,1-.14.06Z" transform="translate(-61.61 -73.9)"/><path class="cls-9" d="M80.94,83.08l.55,0a3.18,3.18,0,0,1,.43.06l0,.55-.43.08c-.16-.21-.36-.4-.53-.6Z" transform="translate(-61.61 -73.9)"/><path class="cls-7" d="M61.61,80.71a2.57,2.57,0,0,1,.29-.15l.81,0L62.59,80c.49,0,1-.31,1.51-.16l.83-.26c.21.08.38.17.55.24L67,79.75a20,20,0,0,1,2.78-.28l1.39-.15.84,0a20.53,20.53,0,0,0,3.32,0l.69.19c.52.44.9.19,1.24.15l.58.05c.72.3,1,.16,1.1,0h.29l1.65-.13.29.13c-.19.28-.1.31,0,.35a.81.81,0,0,0,.7-.3,7.48,7.48,0,0,1,2.49-.14c.32,0,.66,0,1,0a1.35,1.35,0,0,0,.85-.24c.23,0,.46,0,.69,0,.52,0,.59.28,1.23.25.43.09.36-.21.56-.21l1.1,0,.83.12c.35-.07.19-.3.56-.29l1.13,0h1c.2,0,.38.08.58.14v.2c.74.15.81-.1,1.1-.08h.14a1.53,1.53,0,0,0,1.54,0l.81-.08c.45.12,1.13,0,1.37.21h.7l.57.13h1.1l.84-.13.83.13.7-.13h1l.54.14-.29.41H104c-.19-.19-.54-.12-1.23-.21l-.59.13h-.81l-.28-.13-.55.13L100,80c-.3.13-.61,0-1,.2s-.64.06-1,.07l-.14.28c0,.1.08.19.1.27-.26,0-.55.07-.81.08a.66.66,0,0,1-.82-.19,5.07,5.07,0,0,0-1.54.21,2.38,2.38,0,0,1-.29-.07l-.11,0-1.27.07a2.43,2.43,0,0,1-.25-.2H91.68a1.32,1.32,0,0,0-.29.15,1.12,1.12,0,0,0-.29-.07l-.24-.27-.56.29-.57-.27-1.65,0-.55.14-.57,0v-.06c-.26,0-.55,0-.81,0l-.44.14c-.16-.08-.36-.16-.53-.26l-1.94.05c-.29.12-.64.22-.84,0l-1.09,0c-.76.11-1.21-.1-2,0l-.8,0a1,1,0,0,0-.69-.12l-.85.31c-.17-.08-.37-.16-.54-.25l-1.13,0-.69.24-.41-.19-.69-.05c0-.16-.34-.11-.69-.09l-1,.24-1,0c-.37.09-.55-.07-.83-.16l-1,.33-.26-.06c-.78-.17-.84.08-1.12.06h-.15c0-.09-.08-.17-.11-.27l-.84-.08c-.12.54-.72.2-1.13.34-.63-.58-1.53.1-2.63.17v.2H61.61Z" transform="translate(-61.61 -73.9)"/><path class="cls-10" d="M76.6,79.28c.26,0,.32-.18,1-.11l.84.11.84,0,1.65-.06.44-.22,2.08-.06,1,.1h.14l.55,0c.52.11.78.14,1,.19a.51.51,0,0,1,.15-.14l1.93,0,.54.34c-.2,0-.13.3-.56.21-.64,0-.71-.28-1.23-.25-.23,0-.46,0-.69,0a1.35,1.35,0,0,1-.85.24c-.32,0-.66,0-1,0a7.48,7.48,0,0,0-2.49.14.81.81,0,0,1-.7.3c-.09,0-.18-.07,0-.35l-.29-.13-1.65.13H79c-.06.2-.38.34-1.1,0l-.58-.05c-.34,0-.72.29-1.24-.15C76.25,79.4,76.42,79.34,76.6,79.28Z" transform="translate(-61.61 -73.9)"/><path class="cls-9" d="M83.43,78.91l1,.1Z" transform="translate(-61.61 -73.9)"/><path class="cls-9" d="M85.08,79c.23-.07.1-.36.85-.29a3.84,3.84,0,0,0,.28.34.51.51,0,0,0-.15.14C85.86,79.13,85.6,79.1,85.08,79Z" transform="translate(-61.61 -73.9)"/><path class="cls-9" d="M85.08,83.16c.43,0,.56-.42,1.1-.31l.57.26a2.12,2.12,0,0,0,.4.06c.17-.1.52-.29,1.52-.1-.34,0-.5.27-.85.51h-.69c-.23,0-.38.14-1,.23-.11-.18-.25-.35-.39-.54Z" transform="translate(-61.61 -73.9)"/><path class="cls-9" d="M88.14,79.06,88.7,79c0,.07.08.14.13.2s-.09.15-.15.22Z" transform="translate(-61.61 -73.9)"/><path class="cls-10" d="M89.2,83.48a3.52,3.52,0,0,1,1.24-.17v-.06h.28l.56-.36c.46.11,1.19-.06,1.52.25.34,0,.5-.27,1.24-.23.08.13-.18.18-.16.35H93.2l0,.56L91.79,84l-1.37,0-2.32-.31Z" transform="translate(-61.61 -73.9)"/><path class="cls-9" d="M89.22,83.06l1.23.19v.06a3.52,3.52,0,0,0-1.24.17Z" transform="translate(-61.61 -73.9)"/><path class="cls-9" d="M92.3,79.26c.26-.06,0-.31,1-.16.32,0,.47-.2.85-.13.64-.13.74.19,1.51.4l-.56.14h-.14c-.62-.27-.75-.07-1.09-.12s-.38-.1-.58-.14Z" transform="translate(-61.61 -73.9)"/><path class="cls-9" d="M99.79,79.27h.29l1.93.13h2.48a3.21,3.21,0,0,1,.7,0l.46-.34a1.19,1.19,0,0,1-.12-.29h.69l1.24.09c.05.07.08.14.13.21h.26l2-.05c-.22.28-.4.27-.87.47l-.83-.15a3,3,0,0,1-.18.42l-.84,0H105l-.54-.14h-1l-.7.13-.83-.13-.84.13h-1.1l-.57-.13A3.38,3.38,0,0,0,99.79,79.27Z" transform="translate(-61.61 -73.9)"/><path class="cls-9" d="M103.05,82.39c.44,0,.26-.41.86-.34l.68.14-.87.56Z" transform="translate(-61.61 -73.9)"/><path class="cls-10" d="M108.12,79.31l.83.15c.25-.26,1.16-.11.87-.47l1.39,0h.55l.52.35a3.33,3.33,0,0,1,.32-.34l2.34,0,.42.22c.33-.11,12.25.68,12.57.66s.75.07,1.12.12c-.23.19-.42.38-.65.59-.37,0-12.3-.91-12.68-.87a4.48,4.48,0,0,1-.39-.23l-1.3.32-1.09-.09-.69-.08h-.69a2.89,2.89,0,0,1-.39-.15l-.45.21-1.8,0c-.06,0-.09,0-.14,0l-.84-.07A3,3,0,0,0,108.12,79.31Z" transform="translate(-61.61 -73.9)"/><path class="cls-9" d="M112,78.89l.57.15a3.33,3.33,0,0,0-.32.34l-.52-.35Z" transform="translate(-61.61 -73.9)"/><path class="cls-9" d="M130.6,79.68a2,2,0,0,0,.3-.06l1.09.13h.14l0,.27-.71.11-.83,0Z" transform="translate(-61.61 -73.9)"/><path class="cls-9" d="M130.14,85.14l1.26-.21.42.09,0,.35-1.26.2a3.15,3.15,0,0,1-.42-.09Z" transform="translate(-61.61 -73.9)"/><path class="cls-9" d="M136.21,79.49h1l.5.37a1.18,1.18,0,0,1,1-.28c.15.12.49.22.5.38V80l-1.11.07-.43,0c-.33,0-.65,0-1,.08l-.82-.19Z" transform="translate(-61.61 -73.9)"/><path class="cls-9" d="M142.08,82.6c-.17-.46.52-.59.42-1a.74.74,0,0,1,.16-.12h.14l.53.17c1.27.12.59.58.71,1-.28.09-.5.19-.74.29l-.38-.37-.69,0Z" transform="translate(-61.61 -73.9)"/><path class="cls-9" d="M143,84l.66.25c-.08.16.06.38-.61.45C142.78,84.33,142.51,84,143,84Z" transform="translate(-61.61 -73.9)"/><path class="cls-7" d="M97.51,82.67l1.25-.14,1-.06,0,.62h-.83L98.74,83l-1.23-.13Z" transform="translate(-61.61 -73.9)"/><path class="cls-7" d="M97.86,81.7c.37,0,.8.06.81-.07.26,0,.46-.09.7-.14.68.13.95,0,.84-.13l.29-.08h.55a1.82,1.82,0,0,0,1.52.15l-.49.89H99.89l-2-.34Z" transform="translate(-61.61 -73.9)"/><path class="cls-7" d="M103.72,82.82h1.52a2.77,2.77,0,0,0,.11.48l-.69.06c-.31-.16-.64-.32-1-.49Z" transform="translate(-61.61 -73.9)"/><path class="cls-7" d="M105.45,79.77h1.65c0,.1-.1.19-.14.29-.43,0-.92-.07-1.14.19h-.4Z" transform="translate(-61.61 -73.9)"/><path class="cls-10" d="M105.24,82.83l1-.34a5,5,0,0,0,3.21-.18l0-.2,1.52,0,0,.27.24.28-.43.34c.25.06.54.11.82.16l0,.62c.26-.07.56-.14.82-.19l1,.07c-.16.17-.31.33-.44.49l-.69.06c-.25-.12-.44-.24-.67-.36h-.57l-.91-.44v-.2a8.25,8.25,0,0,0-2.21,0v.2a3,3,0,0,1-1.38-.08h-1.09A2.77,2.77,0,0,1,105.24,82.83Z" transform="translate(-61.61 -73.9)"/><path class="cls-7" d="M107.83,83.2a8.25,8.25,0,0,1,2.21,0v.2l-2.21,0Z" transform="translate(-61.61 -73.9)"/><path class="cls-7" d="M107.91,82.16c.1-.19.34-.3.71-.34l.54.21-.54-.21C108.25,81.86,108,82,107.91,82.16Z" transform="translate(-61.61 -73.9)"/><path class="cls-7" d="M111,82.14l.81-.06c.08.17.27.33-.16.61h-.43l-.24-.28Z" transform="translate(-61.61 -73.9)"/><path class="cls-11" d="M112.91,80.16a1.22,1.22,0,0,0,1.1,0l1.27,0c.26,0,12.13.85,12.38.91l.74-.45.57.16,1.79,0A8.54,8.54,0,0,0,132,81l.67.25c.43,0,.5.43,1.48.5a3.1,3.1,0,0,0,1.12-.22c.07-.33.33-.34,1-.21a2.24,2.24,0,0,1,.31-.11,1.72,1.72,0,0,1,.19-.63l1.1.28c.32,0,.64,0,1-.08l.25.29c.28.08.54.14.82.2l-.49.39-1,.28c-.24.28-1,.51-.54.87l-.32.47a3.09,3.09,0,0,1,.34.5h.29l.33.59-.73.23-.29.26-.6.24c-.38,0-.72,0-1.1,0a1.69,1.69,0,0,1-.3.13l-.28.11-.63-.44-.14-.08-1,.14-1.65.06-.42-.09-.77-.32a.75.75,0,0,1,.71-.18l.57-.24c-.45-.61-1.31-.13-2.19-.25-.28-.07-.53-.13-.81-.18l-.82-.19c-.3-.15-12.14-1.11-12.45-1.21h-.29c-.24-.14-.06-.29-.36-.42l-1,.25c-.15-.2-.38-.24-1.08-.09-.29,0-.55-.06-.83-.09l.05-.62a2.5,2.5,0,0,0,.41-.07l2.07.05c.24-.14.75,0,1-.18-1.47-.09-1.73-.76-3.13-.56l-.56-.21Z" transform="translate(-61.61 -73.9)"/><path class="cls-7" d="M111.57,83.19c.38-.07.57.09.77.43-.26,0-.56.12-.82.19Z" transform="translate(-61.61 -73.9)"/><path class="cls-7" d="M113.31,83.69h.4l.85-.11c.49-.06.15-.5.86-.32.48.08,12.78.9,12.71,1.29l.51.3c-.69,0-12.88-.85-13.58-.78l-.57.28-.54,0c-.37-.06-.74-.12-1.08-.16C113,84,113.15,83.86,113.31,83.69Z" transform="translate(-61.61 -73.9)"/><path class="cls-7" d="M114,79.9l1.3-.32a4.48,4.48,0,0,0,.39.23,2.85,2.85,0,0,0-.44.41l-1.27,0Z" transform="translate(-61.61 -73.9)"/><path class="cls-7" d="M128.4,80.68c.23-.21.42-.4.65-.59h1.51l.83,0,0,.34-.59.39-1.79,0Z" transform="translate(-61.61 -73.9)"/><path class="cls-7" d="M134.46,84.82l.14.08.91.33-.28.11c-.28,0-.54,0-.83,0l-.28-.09A4.43,4.43,0,0,0,134.46,84.82Z" transform="translate(-61.61 -73.9)"/><path class="cls-7" d="M135.19,79.93l.7,0,.82.19,0,.28c-.43,0-.63.16-1,.06s-.09-.27-.51-.37Z" transform="translate(-61.61 -73.9)"/><path class="cls-8" d="M137.51,84.86l.29-.26.73-.23-.33-.59h-.29a3.09,3.09,0,0,0-.34-.5l.32-.47c-.42-.36.3-.59.54-.87l1-.28c.1.37.32.44.22.56a.9.9,0,0,1-.3.05c-1,.08-.68.37-1.16.48l.95.28c.11.08.24.14.38.23l0,.21-1.13.27,1.09.08a2,2,0,0,0,.08.48l.8.27,1.49.11a1.12,1.12,0,0,1,.26.22c-.41.43-1.19.29-2.25.19l-.69,0c-.25-.1-.52-.22-.8-.32L138,85a.63.63,0,0,0,.12.21l-1.25-.14Z" transform="translate(-61.61 -73.9)"/><path class="cls-7" d="M139.34,82.26a.9.9,0,0,0,.3-.05l.69.05-.22.61c-.31.11-.17.38-.6.38-.14-.09-.27-.15-.38-.23l-.95-.28C138.66,82.63,138.32,82.34,139.34,82.26Z" transform="translate(-61.61 -73.9)"/><path class="cls-7" d="M138.33,84.78c.28.1.55.22.8.32l-1,.14A.63.63,0,0,1,138,85Z" transform="translate(-61.61 -73.9)"/><path class="cls-7" d="M138.35,83.73l1.13-.27.26.22c.79.35,1-.14,1.65,0a3.6,3.6,0,0,1,.34-.32l1.38,0a2.72,2.72,0,0,0-.21.46l-1.11.14,0,.7-1.49-.11-.8-.27a2,2,0,0,1-.08-.48Z" transform="translate(-61.61 -73.9)"/><path class="cls-7" d="M141.32,80l-.26-.23v-.06l1.29-.06.68.19.1.07-.36.74c-.2,0-.37-.07-.54-.11l-1.57.24Z" transform="translate(-61.61 -73.9)"/><path class="cls-10" d="M139.42,81.65l.49-.39a3,3,0,0,0,.41,0l.16-.12a1.47,1.47,0,0,1,.18-.28l1.57-.24c.17,0,.34.08.54.11a7.77,7.77,0,0,0,0,.84h-.14a.74.74,0,0,0-.16.12c.1.37-.59.5-.42,1h.15l.69,0,.38.37a1.63,1.63,0,0,0-.19.34l-1.38,0a3.6,3.6,0,0,0-.34.32c-.62-.11-.86.38-1.65,0l-.26-.22,0-.21c.43,0,.29-.27.6-.38l.22-.61-.69-.05C139.74,82.09,139.52,82,139.42,81.65Z" transform="translate(-61.61 -73.9)"/><path class="cls-7" d="M141.6,83.19c-.15-.37,0-.53.48-.59h.15l-.06.4A1.47,1.47,0,0,1,141.6,83.19Z" transform="translate(-61.61 -73.9)"/><path class="cls-10" d="M64.94,79.46l1.67-.24.7-.11h.26c.4.31,1.13.1,1.68.11l.55.26a20,20,0,0,0-2.78.28l-1.54.09c-.17-.07-.34-.16-.55-.24Z" transform="translate(-61.61 -73.9)"/><path class="cls-10" d="M70.2,82.29l1.1-.06v.29a2.67,2.67,0,0,1,.4.32l-.11.07c0-.12-.46,0-1.12-.15l-.26-.05Z" transform="translate(-61.61 -73.9)"/><path class="cls-10" d="M71.19,79.32l.84,0Z" transform="translate(-61.61 -73.9)"/><path class="cls-10" d="M77.81,82l.8,0a1.79,1.79,0,0,1,.28.26,1.84,1.84,0,0,1-.15.36c-.29.25-.81.07-1,.45-.37.06-.91-.08-1.12.25l-.26-.05a2.42,2.42,0,0,1-.28-.27c.24-.45-.74-.42-.82-.79a.86.86,0,0,1,.55-.17Z" transform="translate(-61.61 -73.9)"/><path class="cls-10" d="M80.4,83.17l.54,0c.17.2.37.39.53.6a2,2,0,0,1-.69.1l-.54-.2Z" transform="translate(-61.61 -73.9)"/><path class="cls-10" d="M82.73,83c.34.07.44-.17.69-.17l.83.27.83.11.68.12c.14.19.28.36.39.54a2.21,2.21,0,0,1-1.78,0l-1.67,0c-.25,0-.54-.08-.8-.11l0-.55a3.18,3.18,0,0,0-.43-.06c.55-.08.07-.44.7-.37A5.44,5.44,0,0,1,82.73,83Z" transform="translate(-61.61 -73.9)"/><path class="cls-10" d="M94.78,82.15c.06.06.08.13.14.2l1.37.06a.71.71,0,0,1,.15-.07l1.07.33v.15a2.89,2.89,0,0,1-.31.28H95.28l-.68-.27,0-.29a2.14,2.14,0,0,1-1.23-.19l0-.35Z" transform="translate(-61.61 -73.9)"/><path class="cls-10" d="M93.83,79.39l1.23.12h-.14c-.29,0-.36.23-1.1.08Z" transform="translate(-61.61 -73.9)"/><path class="cls-10" d="M99.74,82.47a.53.53,0,0,1,.15-.15h2.19l1,.07.67.36v.13l-.85.34-1.08-.2c-.06,0-.08-.09-.14-.15l-1.8.29-.14-.07Z" transform="translate(-61.61 -73.9)"/><path class="cls-10" d="M130.63,84.61l.77.32-1.26.21A.83.83,0,0,0,130,85C130.33,85,130.24,84.71,130.63,84.61Z" transform="translate(-61.61 -73.9)"/><path class="cls-10" d="M131.82,85l1.65-.06.54.31-2.09.1h-.14Z" transform="translate(-61.61 -73.9)"/><path class="cls-10" d="M133.66,79.91l.55,0,1,.06,0,.2c-.51-.12-.34.19-.73.24l-.95-.27Z" transform="translate(-61.61 -73.9)"/><path class="cls-10" d="M141.79,84l1.11-.14A.37.37,0,0,0,143,84c-.52,0-.25.35.05.7l-1,.21a1.12,1.12,0,0,0-.26-.22Z" transform="translate(-61.61 -73.9)"/><path class="cls-8" d="M62.85,80.85c1.1-.07,2-.75,2.63-.17.41-.14,1,.2,1.13-.34a.32.32,0,0,1,.14-.08l.7.16c0,.1.08.18.11.27h.15c.28,0,.34-.23,1.12-.06l.26.06,1-.33c.28.09.46.25.83.16l1,0,1-.24c.35,0,.72-.07.69.09l.69.05.41.19.69-.24,1.13,0c.17.09.37.17.54.25l.85-.31a1,1,0,0,1,.69.12l.8,0c.76-.11,1.21.1,2,0l1.09,0c.2.2.55.1.84,0l1.94-.05c.17.1.37.18.53.26-.41.42-1.19.26-1.8.34l-.83.08-1,0c-.43-.1-.53.22-1.1.17v.14c-.34,0-.62.52-1.09,0,.23,0,.46-.1.69-.17l-1.11-.36L78.09,81l.42.47a2,2,0,0,0-.29.08c-.23,0-.46,0-.69,0L76,81.39a.67.67,0,0,0-.15-.13l-1,0v.13a3,3,0,0,1-1.38,0,6.84,6.84,0,0,0-1.83.5l-.8-.23a1.2,1.2,0,0,0-.43-.25l-.69,0a1.58,1.58,0,0,1-.26-.13l-1,.06-1.38-.35a17.57,17.57,0,0,0-2.23.21c-.4-.22-1.32,0-2.08-.22Z" transform="translate(-61.61 -73.9)"/><path class="cls-11" d="M81,81.2c.57,0,.67-.27,1.1-.17l1,0,.83-.08c.61-.08,1.39.08,1.8-.34l.44-.14c.26,0,.55,0,.81,0v.06l.57,0,.53.41c.65-.28,1.6-.3,1.65,0,.2-.07.38-.15.58-.21l.81-.09a1.12,1.12,0,0,1,.29.07,2.68,2.68,0,0,0,.27.34v.13l.24.42-.7.08-1.09-.12c-.19-.12-.54,0-.83-.06l-1-.11-.25-.07H87.5l-1,.1-.3.21c-.34-.22-1.3.05-1.22-.39l-1,0-1,0a8.9,8.9,0,0,0-2.08,0Z" transform="translate(-61.61 -73.9)"/><path class="cls-8" d="M88.08,80.52l1.65,0,.57.27.27-.28h.29l.24.27-.81.09c-.2.06-.38.14-.58.21,0-.27-1-.25-1.65,0l-.53-.41Z" transform="translate(-61.61 -73.9)"/><path class="cls-8" d="M115.72,79.81c.38,0,12.31.83,12.68.87l.57.16c-.36.34-.92.17-1.31.29-.25-.06-12.12-.93-12.38-.91A2.85,2.85,0,0,1,115.72,79.81Z" transform="translate(-61.61 -73.9)"/><path class="cls-8" d="M134.46,84.82l.14.08-.48.37H134l-.54-.31Z" transform="translate(-61.61 -73.9)"/><path class="cls-11" d="M71.86,80.6c.23,0,.47.07.7.12.63-.09,1,0,1.12.29a1.06,1.06,0,0,0-.15.14L71.17,81Z" transform="translate(-61.61 -73.9)"/><path class="cls-11" d="M79.48,80.78l1.11.36c-.23.07-.46.12-.69.17l-1.13.11h-.26L78.09,81Z" transform="translate(-61.61 -73.9)"/><path class="cls-11" d="M99.38,81.21a.3.3,0,0,0,.15-.07l.68.22c.11.13-.16.26-.84.13Z" transform="translate(-61.61 -73.9)"/><path class="cls-11" d="M110.68,80.18a3.12,3.12,0,0,0,.43.15c-.23.34-.85.09-1.15.26l-.24-.28Z" transform="translate(-61.61 -73.9)"/><path class="cls-6" d="M71.74,78.67l.84,0v.06C72.38,78.72,72.46,79,71.74,78.67Z" transform="translate(-61.61 -73.9)"/><path class="cls-6" d="M71.63,78.68h0Z" transform="translate(-61.61 -73.9)"/><path class="cls-4" d="M110.82,78.45c.51-.27,1.51,0,2-.17.12-.13.38,0,1,.16a7.56,7.56,0,0,1,2-.16c.11,0,3,.29,6,.57s5.92.58,6.15.62c-.38,0-12.34-.79-12.72-.72l-1.38-.18-1.69.12-.81,0Z" transform="translate(-61.61 -73.9)"/><path class="cls-10" d="M88.68,79.4c.06-.07.09-.15.15-.22l1,0a5.37,5.37,0,0,1,1.38.12c-.37,0-.21.22-.56.29l-.83-.12Z" transform="translate(-61.61 -73.9)"/><path class="cls-10" d="M93.18,83.83a.31.31,0,0,1,.14.07A.31.31,0,0,0,93.18,83.83Z" transform="translate(-61.61 -73.9)"/><path class="cls-10" d="M95.06,79.51l.56-.14,1,.12A1.53,1.53,0,0,1,95.06,79.51Z" transform="translate(-61.61 -73.9)"/></g></g></svg>